<svg preserveAspectRatio="none" width="100%" height="100%" overflow="visible" style="display: block;" viewBox="0 0 37 45" fill="none" xmlns="http://www.w3.org/2000/svg">
<path id="Vector" d="M18.6106 31.0268C18.2159 31.2829 17.8325 31.5389 17.4378 31.795C12.8823 29.2901 3.13969 24.4808 2.29397 24.0911C1.38061 23.6458 -0.175508 23.0001 0.0161866 21.5195C0.275538 19.4711 3.98539 14.9066 5.54149 12.9807C13.9873 2.84988 17.7648 -0.300683 20.2343 0.0221662C22.8955 0.345016 24.3952 3.10593 24.5869 15.8084C23.0872 15.3631 21.4634 14.9066 19.7156 14.4613C19.5803 12.6022 19.1969 9.84124 19.0616 8.87269C18.9263 7.78168 18.6669 7.39204 18.2835 7.33637C17.7648 7.26958 16.5245 8.42738 15.4194 9.58519C14.9007 10.0973 13.4686 11.5112 11.9125 13.1143C10.6158 13.0475 9.7024 13.3035 9.25136 13.9492C8.85669 14.4613 8.80032 15.1738 8.99201 16.0644C8.1463 16.8994 7.4359 17.6008 6.90592 18.1129C5.14684 19.8496 3.26373 21.2634 3.19607 21.9648C3.12841 22.5437 3.97411 23.1226 5.28215 23.8908C8.27033 25.4939 15.8817 29.6018 18.6106 31.0157V31.0268ZM30.3716 18.3133C27.3834 17.289 20.0314 14.5949 12.2959 13.5596C9.63474 13.2367 8.58606 14.1385 9.63474 16.6433C10.7398 19.1482 13.5363 23.2562 16.4568 26.3956C19.3886 29.4794 22.5685 30.3143 23.6059 25.5607C23.6736 25.3714 23.6735 25.2378 23.7412 25.0486C24.0006 23.824 24.1923 22.6105 24.2599 21.5863C22.9632 21.0074 21.4634 20.3617 20.0314 19.7939C20.099 20.8849 20.223 22.8109 20.2907 24.2247V24.7368C20.3584 27.1081 19.5803 27.1081 18.2046 26.1507C16.6485 25.0597 11.7659 18.7029 11.1796 15.8863C11.1796 15.6971 11.2472 15.6971 11.3149 15.7527C11.36 15.7527 11.4051 15.775 11.4502 15.8195C12.5553 16.2648 16.1975 17.6787 19.896 19.2261C21.3958 19.8718 22.8842 20.4507 24.1923 21.0853C25.489 21.6642 26.6617 22.2431 27.5751 22.6884C29.1989 23.5234 29.7852 24.1023 29.1312 24.8036C25.816 28.1435 14.1114 32.886 10.0858 38.7975L10.0181 38.8643C9.95047 38.9311 9.95048 38.9979 9.88282 39.0535C9.88282 39.0535 9.88282 39.1203 9.81517 39.1203C9.62347 39.51 9.36411 40.0778 9.2288 40.857C9.03711 42.1373 9.74751 43.2951 11.6306 43.8072C12.0817 43.9408 12.6004 44.0633 13.1867 44.1301H13.5137C17.0883 44.3193 26.4475 42.2709 29.244 41.0463C32.1758 39.766 31.3301 38.4746 30.4844 37.8401C29.8303 37.328 26.5828 35.5245 25.0267 34.6895C24.5756 34.9456 24.2486 35.1348 23.854 35.4577C26.5264 37.0608 27.6315 37.8957 28.2742 38.341C28.5336 38.5303 28.4095 38.7307 28.0149 38.7864H27.7555C25.2184 38.9756 20.3471 39.2985 18.0693 39.4321C17.7423 39.4321 17.3589 39.4989 17.1559 39.4989C17.7423 38.9867 18.3287 38.5414 18.6557 38.2743C23.527 34.8676 31.6571 30.1251 34.0702 28.0655C35.9533 26.4624 40.7005 21.8423 30.3603 18.3133H30.3716Z" fill="var(--fill-0, white)"/>
</svg>
