<svg preserveAspectRatio="none" width="100%" height="100%" overflow="visible" style="display: block;" viewBox="0 0 5 6" fill="none" xmlns="http://www.w3.org/2000/svg">
<path id="Vector" d="M2.19367 5.74681C1.52363 5.74681 0.761819 5.53464 0.284536 5.16567C0.119322 5.03653 0 4.87049 0 4.686C0 4.42771 0.165216 4.25245 0.422215 4.25245C0.514 4.25245 0.596606 4.28012 0.679212 4.32625C1.12896 4.6122 1.43185 4.86126 2.21202 4.86126C2.9922 4.86126 3.32263 4.53841 3.32263 4.16021C3.32263 3.75433 3.00138 3.54217 2.0101 3.27466C0.514 2.87801 0.0642494 2.38912 0.0642494 1.55892C0.0642494 0.544239 0.93621 0 2.24874 0C2.54245 0 2.95549 0.0461219 3.30427 0.14759C3.68059 0.258283 4.16705 0.498119 4.16705 0.830198C4.16705 1.05158 4.03855 1.29142 3.75402 1.29142C3.68977 1.29142 3.62552 1.29142 3.55209 1.24529C3.17577 1.07003 2.77192 0.894769 2.24874 0.894769C1.51446 0.894769 1.06471 1.09771 1.06471 1.52203C1.06471 1.9279 1.39514 2.07549 2.38642 2.36145C3.51538 2.69353 4.32309 3.01638 4.32309 4.08641C4.32309 5.04575 3.59798 5.72836 2.19367 5.72836V5.74681Z" fill="var(--fill-0, white)"/>
</svg>
