<svg preserveAspectRatio="none" width="100%" height="100%" overflow="visible" style="display: block;" viewBox="0 0 5 6" fill="none" xmlns="http://www.w3.org/2000/svg">
<path id="Vector" d="M4.16705 5.67301C4.01101 5.67301 3.89169 5.61766 3.79991 5.49775L0.945389 1.87255V5.19334C0.945389 5.46085 0.734282 5.66379 0.468105 5.66379C0.201928 5.66379 0 5.45163 0 5.19334V0.47967C0 0.221386 0.192749 0 0.49564 0C0.62414 0 0.770996 0.073794 0.844424 0.175263L3.69894 3.80046V0.47967C3.69894 0.221386 3.89169 0 4.16705 0C4.44241 0 4.64433 0.221386 4.64433 0.47967V5.19334C4.64433 5.45163 4.44241 5.66379 4.16705 5.66379V5.67301Z" fill="var(--fill-0, white)"/>
</svg>
