<svg preserveAspectRatio="none" width="100%" height="100%" overflow="visible" style="display: block;" viewBox="0 0 5 6" fill="none" xmlns="http://www.w3.org/2000/svg">
<path id="Vector" d="M3.61634 5.53464H0.513999C0.229464 5.53464 0 5.31326 0 5.0273V0.507345C0 0.221389 0.229464 0 0.513999 0H3.48784C3.75402 0 3.96512 0.202937 3.96512 0.46122C3.96512 0.719504 3.75402 0.931667 3.48784 0.931667H1.00964V2.25076H2.37724C2.63424 2.25076 2.84535 2.46292 2.84535 2.7212C2.84535 2.97948 2.63424 3.18242 2.37724 3.18242H1.00964V4.57531H3.61634C3.88252 4.57531 4.09362 4.78747 4.09362 5.04575C4.09362 5.30404 3.88252 5.50697 3.61634 5.50697V5.53464Z" fill="var(--fill-0, white)"/>
</svg>
