<svg preserveAspectRatio="none" width="100%" height="100%" overflow="visible" style="display: block;" viewBox="0 0 3 1" fill="none" xmlns="http://www.w3.org/2000/svg">
<path id="Vector" d="M2.46902 0.479669C2.46902 0.267507 2.30381 0.0922434 2.0927 0.083019C2.0927 0.083019 2.08353 0.083019 2.07435 0.083019C2.06517 0.083019 2.04681 0.083019 2.03763 0.083019C1.73474 0.083019 0.62414 0.0184488 0.477283 0C0.211106 0 0 0.212161 0 0.479669C0 0.747177 0.211106 0.959339 0.477283 0.959339C0.477283 0.959339 0.49564 0.959339 0.504819 0.959339C0.504819 0.959339 0.523176 0.959339 0.532354 0.959339C0.550711 0.959339 0.569068 0.959339 0.587425 0.959339C0.881138 0.931665 1.79899 0.885543 2.05599 0.885543C2.06517 0.885543 2.07435 0.885543 2.08352 0.885543C2.08352 0.885543 2.08352 0.885543 2.0927 0.885543H2.10188C2.31299 0.876318 2.4782 0.701055 2.4782 0.488894L2.46902 0.479669Z" fill="var(--fill-0, #1265A5)"/>
</svg>
