<svg preserveAspectRatio="none" width="100%" height="100%" overflow="visible" style="display: block;" viewBox="0 0 4 4" fill="none" xmlns="http://www.w3.org/2000/svg">
<path id="Vector" d="M3.38688 3.77278C3.21248 3.77278 3.07481 3.62519 3.07481 3.45915V1.61427L2.1386 3.60674C2.08352 3.72666 1.98256 3.78201 1.86324 3.78201C1.73474 3.78201 1.65213 3.72666 1.58788 3.60674L0.633318 1.61427V3.45915C0.633318 3.63442 0.486462 3.78201 0.31207 3.78201C0.137678 3.78201 0 3.63442 0 3.45915V0.31363C0 0.138366 0.137678 0 0.31207 0C0.458926 0 0.550711 0.0922435 0.605782 0.202936L1.85406 2.80422L3.09316 0.202936C3.14823 0.0830191 3.2492 0 3.38688 0C3.5888 0 3.70812 0.129142 3.70812 0.322855V3.46838C3.70812 3.64364 3.57045 3.78201 3.38688 3.78201V3.77278Z" fill="var(--fill-0, white)"/>
</svg>
