<svg preserveAspectRatio="none" width="100%" height="100%" overflow="visible" style="display: block;" viewBox="0 0 3 4" fill="none" xmlns="http://www.w3.org/2000/svg">
<path id="Vector" d="M1.67049 3.69899H0.339606C0.156036 3.69899 0 3.54217 0 3.35769V0.341304C0 0.156816 0.146857 0 0.339606 0H1.61542C2.3497 0 2.77192 0.387427 2.77192 0.913218C2.77192 1.28219 2.54245 1.5497 2.18449 1.70652C2.66177 1.81721 2.97384 2.16774 2.97384 2.63818C2.97384 3.19165 2.52409 3.69899 1.67049 3.69899ZM1.64296 0.608811H0.679211V1.44823H1.64296C1.95502 1.44823 2.0927 1.23607 2.0927 1.02391C2.0927 0.784075 1.92749 0.608811 1.64296 0.608811ZM1.71638 2.05704H0.670032V3.0994H1.71638C2.06517 3.0994 2.29463 2.89647 2.29463 2.56439C2.29463 2.28765 2.08353 2.05704 1.71638 2.05704Z" fill="var(--fill-0, white)"/>
</svg>
