<svg preserveAspectRatio="none" width="100%" height="100%" overflow="visible" style="display: block;" viewBox="0 0 150 20" fill="none" xmlns="http://www.w3.org/2000/svg">
<path id="Vector" d="M5.85232 11.3554L8.90816 3.20623L11.7723 11.3554H5.85232ZM14.6928 19.5714H17.4893L10.2726 0H7.54375L0 19.5714H2.79649L5.00661 13.5374H12.5504L14.6928 19.5714ZM27.8972 15.3966C27.8972 16.9997 26.6004 17.8346 24.3227 17.8346C22.5072 17.8346 21.3345 17.3225 20.6128 16.1647L17.9516 16.61C18.989 18.7253 21.1428 19.6938 24.1986 19.6938C28.3595 19.6938 30.502 17.445 30.502 15.0069C30.502 11.9232 27.5815 11.0882 24.255 10.3868C22.6312 10.064 20.7481 9.48509 20.7481 8.07123C20.7481 7.04702 21.7179 5.88922 23.7363 5.88922C25.7547 5.88922 26.9838 7.23628 27.1868 7.81518L29.5322 6.85777C28.4272 4.79821 26.2847 4.03005 24.0746 4.03005C20.5677 4.03005 18.2899 5.69996 18.2899 8.39408C18.2899 11.4779 20.9511 12.0568 23.5559 12.6357C25.766 13.2146 27.9085 13.7267 27.9085 15.3966H27.8972ZM36.1513 0L33.5466 1.09101V4.68688H31.1447V6.73531H33.5466V16.2983C33.4789 18.2243 33.4789 19.6381 36.4671 19.6381C37.4368 19.6381 38.4855 19.4489 38.9366 19.3821V17.3337C38.4179 17.4673 37.7638 17.6565 37.3128 17.6565C36.2077 17.6565 36.2077 16.8884 36.2077 15.1517V6.8021H38.9366V4.75368H36.2077V0H36.1401H36.1513ZM41.158 4.67575V19.5714H43.6951V12.7025C43.6951 11.4222 43.6274 9.94153 44.3491 8.85052C45.1948 7.50346 46.3675 7.05815 48.9047 6.99136V4.4197C47.8673 4.48649 45.1948 4.48649 43.7628 7.30308V4.67575H41.158ZM63.7779 0V2.43807H75.0202L63.7779 17.0776V19.6493H78.3467V17.278H66.8338L78.0761 2.516V0.011133H63.7779V0ZM94.2123 4.67575V19.5714H96.7494V11.1661C96.7494 10.0751 96.7494 8.91732 97.8545 7.82631C98.6325 7.05815 99.6135 6.66851 100.719 6.66851C102.083 6.66851 103.515 7.31421 103.966 8.71693C104.101 9.22904 104.101 9.67435 104.101 11.155V19.5602H106.639V10.7654C106.639 9.48509 106.639 8.58334 106.379 7.74838C105.669 5.31031 103.323 4.34177 101.44 4.34177C100.527 4.34177 98.1251 4.53102 96.7607 6.96909V4.72028H94.2235V4.65348L94.2123 4.67575ZM133.476 15.9755C132.957 16.9997 131.976 17.9014 129.969 17.9014C128.278 17.9014 125.413 16.8772 125.413 11.9343C125.413 10.5872 125.673 5.96715 129.834 5.96715C131.92 5.96715 132.889 7.12495 133.341 8.08237L135.686 7.12495C134.254 4.75368 131.593 4.17478 129.698 4.17478C124.883 4.17478 122.549 7.95991 122.549 12.2015C122.549 15.8642 124.568 19.9053 129.89 19.9053C132.946 19.9053 134.705 18.4247 135.607 16.9552L133.465 15.9977L133.476 15.9755ZM81.9889 10.5872H89.9837C89.792 6.66851 87.5142 6.03394 85.9581 6.03394C83.8157 6.03394 82.2483 7.57026 81.9889 10.5872ZM92.0585 16.7436C91.2128 18.2243 89.5214 19.8274 86.2739 19.8274C81.8536 19.8274 79.2488 16.8772 79.2488 11.8675C79.2488 6.27886 82.9587 4.16364 86.1385 4.16364C88.935 4.16364 91.5398 5.69996 92.4419 9.42943C92.7013 10.7097 92.7013 11.8007 92.7013 12.4464H81.91C81.8423 14.9513 82.8797 18.0907 86.4655 18.035C87.8976 18.035 88.935 17.3337 89.589 16.3651L92.0585 16.7548V16.7436ZM110.721 10.5872H118.715C118.524 6.66851 116.246 6.03394 114.69 6.03394C112.547 6.03394 111.048 7.57026 110.721 10.5872ZM120.801 16.7436C119.956 18.2243 118.264 19.8274 115.017 19.8274C110.597 19.8274 107.992 16.8772 107.992 11.8675C107.992 6.27886 111.702 4.16364 114.881 4.16364C117.678 4.16364 120.283 5.69996 121.185 9.42943C121.444 10.7097 121.444 11.8007 121.444 12.4464H110.653C110.585 14.9513 111.623 18.0907 115.208 18.035C116.641 18.035 117.678 17.3337 118.332 16.3651L120.801 16.7548V16.7436ZM149.533 19.5714H146.872C146.872 19.5714 146.613 18.5471 146.545 17.3893C145.767 18.1575 144.335 19.7606 141.471 19.7606C138.606 19.7606 136.396 18.0239 136.396 15.519C136.396 14.7509 136.588 13.9159 137.05 13.2702C137.896 11.99 139.52 11.0214 144.008 10.6429L146.41 10.4536V10.064C146.41 8.52768 146.41 5.95601 143.027 5.95601C140.941 5.95601 140.163 6.98023 139.971 7.88198L137.625 6.92456C137.693 6.85777 137.693 6.73531 137.761 6.66851C138.674 5.0654 140.422 4.04118 142.959 4.04118C144.323 4.04118 146.139 4.36403 147.312 5.32145C149.003 6.60171 148.935 9.03978 148.935 9.03978L149.071 16.6768C149.138 16.7436 149.206 18.9257 149.522 19.5602L149.533 19.5714ZM146.094 15.4634C146.489 14.6284 146.489 14.3056 146.489 12.1235C145.519 12.2571 144.154 12.4464 142.519 12.8249C139.723 13.4038 139.272 14.4948 139.272 15.519C139.272 16.7436 140.242 17.7011 142.136 17.7011C143.895 17.7011 145.383 16.9997 146.105 15.4522L146.094 15.4634ZM62.0301 19.5714H59.4253C59.4253 19.5714 59.166 18.5471 59.0983 17.3893C58.3203 18.1575 56.8882 19.7606 54.0241 19.7606C51.1599 19.7606 48.8821 18.0239 48.8821 15.519C48.8821 14.7509 49.0738 13.9159 49.5361 13.2702C50.3819 11.99 52.0056 11.0214 56.4935 10.6429L58.8953 10.4536V10.064C58.8953 8.52768 58.8953 5.95601 55.5125 5.95601C53.37 5.95601 52.6484 6.98023 52.4567 7.88198L50.1112 6.92456C50.1789 6.85777 50.1789 6.73531 50.2465 6.66851C51.1599 5.0654 52.9077 4.04118 55.4448 4.04118C56.8093 4.04118 58.636 4.36403 59.7974 5.32145C61.4889 6.60171 61.4212 9.03978 61.4212 9.03978L61.4889 16.6768C61.5565 16.7436 61.6806 18.9257 62.0076 19.5602L62.0301 19.5714ZM58.512 15.4634C58.9066 14.6284 58.9066 14.3056 58.9066 12.1235C57.9369 12.2571 56.5612 12.4464 54.9374 12.8249C52.1409 13.4038 51.6899 14.4948 51.6899 15.519C51.6899 16.7436 52.6596 17.7011 54.554 17.7011C56.3131 17.7011 57.8016 16.9997 58.5232 15.4522L58.512 15.4634Z" fill="var(--fill-0, white)"/>
</svg>
