<svg preserveAspectRatio="none" width="100%" height="100%" overflow="visible" style="display: block;" viewBox="0 0 31 37" fill="none" xmlns="http://www.w3.org/2000/svg">
<path id="Vector" d="M15.5088 25.8557C15.1799 26.0691 14.8604 26.2825 14.5315 26.4958C10.7352 24.4084 2.61641 20.4007 1.91165 20.076C1.15051 19.7049 -0.146257 19.1668 0.0134889 17.9329C0.229615 16.2259 3.32116 12.4222 4.61791 10.8172C11.6561 2.3749 14.804 -0.250569 16.8619 0.0184718C19.0796 0.287513 20.3294 2.58828 20.4891 13.1737C19.2393 12.8026 17.8862 12.4222 16.4297 12.0511C16.3169 10.5018 15.9974 8.20103 15.8847 7.39391C15.7719 6.48474 15.5558 6.16003 15.2363 6.11365C14.804 6.05798 13.7704 7.02282 12.8495 7.98766C12.4173 8.41441 11.2239 9.59263 9.92711 10.9286C8.84648 10.8729 8.08534 11.0863 7.70947 11.6243C7.38058 12.0511 7.3336 12.6449 7.49334 13.387C6.78858 14.0828 6.19658 14.6673 5.75493 15.0941C4.28903 16.5413 2.71977 17.7195 2.66339 18.304C2.60701 18.7864 3.31176 19.2688 4.40179 19.909C6.89194 21.2449 13.2348 24.6682 15.5088 25.8464V25.8557ZM25.3097 15.261C22.8195 14.4075 16.6928 12.1624 10.2466 11.2996C8.02896 11.0306 7.15505 11.7821 8.02895 13.8695C8.94984 15.9568 11.2802 19.3802 13.714 21.9963C16.1572 24.5662 18.8071 25.262 19.6716 21.3006C19.728 21.1428 19.728 21.0315 19.7843 20.8738C20.0005 19.8533 20.1602 18.8421 20.2166 17.9886C19.136 17.5061 17.8862 16.9681 16.6928 16.4949C16.7492 17.4041 16.8525 19.0091 16.9089 20.1873V20.614C16.9653 22.5901 16.3169 22.5901 15.1705 21.7923C13.8738 20.8831 9.80494 15.5857 9.31631 13.2386C9.31631 13.0809 9.3727 13.0809 9.42908 13.1273C9.46667 13.1273 9.50425 13.1458 9.54184 13.1829C10.4627 13.554 13.4979 14.7322 16.58 16.0218C17.8298 16.5599 19.0702 17.0423 20.1602 17.5711C21.2409 18.0535 22.2181 18.5359 22.9793 18.907C24.3324 19.6028 24.821 20.0852 24.276 20.6697C21.5134 23.4529 11.7595 27.405 8.40482 32.3312L8.34844 32.3869C8.29206 32.4426 8.29207 32.4982 8.23569 32.5446C8.23569 32.5446 8.23569 32.6003 8.17931 32.6003C8.01956 32.925 7.80343 33.3981 7.69067 34.0475C7.53092 35.1144 8.12293 36.0793 9.69219 36.506C10.0681 36.6173 10.5003 36.7194 10.9889 36.7751H11.2615C14.2402 36.9328 22.0396 35.2258 24.37 34.2053C26.8131 33.1384 26.1084 32.0622 25.4036 31.5334C24.8586 31.1066 22.1523 29.6037 20.8556 28.9079C20.4797 29.1213 20.2072 29.279 19.8783 29.5481C22.1054 30.884 23.0262 31.5798 23.5619 31.9509C23.778 32.1086 23.6746 32.2756 23.3457 32.322H23.1296C21.0153 32.4797 16.9559 32.7487 15.0578 32.86C14.7852 32.86 14.4658 32.9157 14.2966 32.9157C14.7852 32.489 15.2739 32.1179 15.5464 31.8952C19.6058 29.0564 26.3809 25.1042 28.3918 23.3879C29.9611 22.052 33.9171 18.2019 25.3003 15.261H25.3097Z" fill="var(--fill-0, #F0AB00)"/>
</svg>
