<svg preserveAspectRatio="none" width="100%" height="100%" overflow="visible" style="display: block;" viewBox="0 0 4 3" fill="none" xmlns="http://www.w3.org/2000/svg">
<path id="Vector" d="M3.77279 0.201575C3.66265 0.00786265 3.41483 -0.0567081 3.22208 0.0539848C3.22208 0.0539848 2.21244 0.672021 1.86366 0.847285C1.5883 0.985651 0.872376 1.25316 0.523593 1.3823C0.459343 1.39152 0.385914 1.4192 0.321665 1.4561C0.0187735 1.63136 -0.0913685 2.02801 0.0830234 2.33241C0.257415 2.63682 0.652092 2.74751 0.954983 2.57225C1.01923 2.53535 1.0743 2.48923 1.1202 2.43388C1.40473 2.19405 1.99216 1.71438 2.24916 1.53912C2.57958 1.31773 3.61676 0.745815 3.61676 0.745815C3.8095 0.635123 3.87375 0.386064 3.76361 0.192351L3.77279 0.201575Z" fill="var(--fill-0, #1265A5)"/>
</svg>
