<svg preserveAspectRatio="none" width="100%" height="100%" overflow="visible" style="display: block;" viewBox="0 0 5 6" fill="none" xmlns="http://www.w3.org/2000/svg">
<path id="Vector" d="M4.02019 4.3447C4.13034 4.2709 4.2313 4.22478 4.35062 4.22478C4.63516 4.22478 4.80955 4.43694 4.80955 4.686C4.80955 4.81514 4.75448 4.92583 4.65351 5.0273C4.18541 5.5162 3.45113 5.73758 2.80863 5.73758C1.18403 5.73758 0 4.60298 0 2.86879C0 1.1346 1.19321 0 2.80863 0C3.45113 0 4.18541 0.212162 4.65351 0.71028C4.75448 0.811749 4.80955 0.922441 4.80955 1.05158C4.80955 1.30064 4.63516 1.5128 4.35062 1.5128C4.2313 1.5128 4.13034 1.46668 4.02019 1.39288C3.70812 1.15305 3.36852 0.931664 2.79945 0.931664C1.71638 0.931664 1.00046 1.75264 1.00046 2.85957C1.00046 3.9665 1.71638 4.78747 2.79945 4.78747C3.35934 4.78747 3.69895 4.57531 4.02019 4.32625V4.3447Z" fill="var(--fill-0, white)"/>
</svg>
