<svg preserveAspectRatio="none" width="100%" height="100%" overflow="visible" style="display: block;" viewBox="0 0 6 6" fill="none" xmlns="http://www.w3.org/2000/svg">
<path id="Vector" d="M5.0023 0.673382L2.95549 5.39628C2.88206 5.56232 2.70767 5.67301 2.52409 5.67301C2.34052 5.67301 2.16613 5.57154 2.09271 5.39628L0.0458954 0.673382C0.0183599 0.618035 0 0.544241 0 0.47967C0 0.230611 0.211106 0 0.458926 0C0.642497 0 0.826071 0.101468 0.899499 0.276732L2.51492 4.14176L4.14869 0.276732C4.22212 0.110692 4.38734 0 4.57091 0C4.83709 0 5.03901 0.21216 5.03901 0.470443C5.03901 0.535014 5.02065 0.599586 5.0023 0.673382Z" fill="var(--fill-0, white)"/>
</svg>
