<svg preserveAspectRatio="none" width="100%" height="100%" overflow="visible" style="display: block;" viewBox="0 0 541 190" fill="none" xmlns="http://www.w3.org/2000/svg">
<g id="Lokelma_RGB 1" clip-path="url(#clip0_1524_6298)">
<path id="Vector" d="M34.361 0L0.481696 19.4536L34.361 39.3498V0Z" fill="var(--fill-0, #F2BAC1)"/>
<path id="Vector_2" d="M36.8887 0L36.8687 39.3498L70.7553 19.4536L36.8887 0Z" fill="var(--fill-0, #F2BAC1)"/>
<path id="Vector_3" d="M71.2272 22.399L37.3432 42.2751L71.2272 62.1393V22.399Z" fill="var(--fill-0, #EA8596)"/>
<path id="Vector_4" d="M0 62.1367L33.8942 42.2777L0 22.399V62.1367Z" fill="var(--fill-0, #EA8596)"/>
<path id="Vector_5" d="M36.8713 87.4137L36.8913 126.769L70.751 107.292L36.8713 87.4137Z" fill="var(--fill-0, #EA8596)"/>
<path id="Vector_6" d="M0.479141 107.295L34.3585 126.769V87.4086L0.479141 107.295Z" fill="var(--fill-0, #EA8596)"/>
<path id="Vector_7" d="M71.2272 64.6119L37.3432 84.4854L71.2272 104.35V64.6119Z" fill="var(--fill-0, #F2BAC1)"/>
<path id="Vector_8" d="M0 104.354L33.8942 84.4905L0 64.6144V104.354Z" fill="var(--fill-0, #F2BAC1)"/>
<path id="Vector_9" d="M34.361 0L0.481696 19.4536L34.361 39.3498V0Z" fill="var(--fill-0, #73C3B7)"/>
<path id="Vector_10" d="M36.8887 0L36.8687 39.3498L70.7553 19.4536L36.8887 0Z" fill="var(--fill-0, #73C3B7)"/>
<path id="Vector_11" d="M71.2272 22.399L37.3432 42.2751L71.2272 62.1393V22.399Z" fill="var(--fill-0, #00927C)"/>
<path id="Vector_12" d="M0 62.1367L33.8942 42.2777L0 22.399V62.1367Z" fill="var(--fill-0, #00927C)"/>
<path id="Vector_13" d="M36.8713 87.4137L36.8913 126.769L70.751 107.292L36.8713 87.4137Z" fill="var(--fill-0, #00927C)"/>
<path id="Vector_14" d="M0.479141 107.295L34.3585 126.769V87.4086L0.479141 107.295Z" fill="var(--fill-0, #00927C)"/>
<path id="Vector_15" d="M71.2272 64.6119L37.3432 84.4854L71.2272 104.35V64.6119Z" fill="var(--fill-0, #73C3B7)"/>
<path id="Vector_16" d="M0 104.354L33.8942 84.4905L0 64.6144V104.354Z" fill="var(--fill-0, #73C3B7)"/>
<path id="Vector_17" d="M390.507 93.2473H396.072V45.2282L421.052 74.7236H421.412L444.84 45.2282V93.2473H450.405V30.8384H449.956L421.412 66.4452L390.869 30.8384H390.507V93.2473ZM345.453 93.2473H379.652V88.0338H351.285V32.0985H345.453V93.2473ZM295.016 93.2473H333.07V88.0338H300.846V70.3759H328.491V65.2498H300.846V37.3172H331.813V32.099H295.016L295.016 93.2473ZM248.078 67.3452V32.0985H242.246V93.2473H248.078V75.0838L255.886 65.3693L277.967 93.2473H284.967L259.568 61.1488L282.357 32.0985H275.808L248.078 67.3452ZM199.34 88.659C184.807 88.659 174.123 77.509 174.123 62.6744C174.123 47.8399 184.807 36.6869 199.34 36.6869C213.874 36.6869 224.563 47.8339 224.563 62.6744C224.563 77.5149 213.886 88.659 199.34 88.659ZM199.34 93.9647C216.667 93.9647 230.664 80.7475 230.664 62.674C230.664 44.6005 216.667 31.3756 199.34 31.3756C182.013 31.3756 168.021 44.5979 168.021 62.674C168.021 80.7501 182.019 93.9647 199.34 93.9647ZM130.596 93.2473H164.792V88.0338H136.43V32.0985H130.596V93.2473Z" fill="var(--fill-0, white)"/>
<g id="Group">
<path id="Vector_18" d="M138.439 125.671C138.439 122.885 137.775 121.372 135.53 121.372C134.536 121.372 132.328 121.658 132.328 124.728C132.328 127.308 134.758 127.798 137.186 128.701C139.58 129.601 142.008 130.544 142.008 134.882C142.008 139.511 139.322 141.761 135.642 141.761C128.941 141.761 128.869 136.235 128.869 133.982H131.961C131.961 136.642 132.622 139.06 135.642 139.06C136.635 139.06 138.919 138.528 138.919 135.415C138.919 132.467 136.488 131.854 134.095 130.951C131.702 130.051 129.236 129.273 129.236 124.728C129.236 120.634 132.108 118.669 135.53 118.669C141.274 118.669 141.494 123.09 141.531 125.67H138.439V125.671Z" fill="var(--fill-0, white)"/>
<path id="Vector_19" d="M151.097 118.669C156.802 118.669 158.199 124.033 158.199 130.214C158.199 136.396 156.764 141.762 151.097 141.762C145.39 141.762 143.992 136.398 143.992 130.214C143.992 124.03 145.427 118.669 151.097 118.669ZM154.96 130.214C154.96 125.466 154.336 121.372 151.022 121.372C147.892 121.372 147.231 125.466 147.231 130.214C147.231 134.963 147.858 139.061 151.022 139.061C154.298 139.061 154.96 134.965 154.96 130.214Z" fill="var(--fill-0, white)"/>
<path id="Vector_20" d="M174.28 141.189H171.335V138.486H171.26C170.856 140.124 169.127 141.762 166.993 141.762C162.316 141.762 160.549 137.136 160.549 130.214C160.549 125.628 161.213 118.669 166.77 118.669C168.537 118.669 170.414 119.857 171.115 121.74H171.187V111.953H174.28V141.188L174.28 141.189ZM167.397 138.813C170.821 138.813 171.373 135.21 171.373 130.214C171.373 125.958 170.709 121.617 167.397 121.617C164.525 121.617 163.789 124.973 163.789 130.214C163.789 135.455 164.525 138.813 167.397 138.813Z" fill="var(--fill-0, white)"/>
<path id="Vector_21" d="M178.508 111.953H181.6V115.884H178.508V111.953ZM178.508 119.242H181.6V141.189H178.508V119.242Z" fill="var(--fill-0, white)"/>
<path id="Vector_22" d="M198.824 141.189H195.879V138.608H195.806C194.995 140.616 192.934 141.762 191.02 141.762C185.829 141.762 185.829 137.381 185.829 134.8V119.243H188.921V134.393C188.921 136.071 189.034 138.814 191.828 138.814C193.486 138.814 195.731 137.586 195.731 134.393V119.243H198.824V141.189V141.189Z" fill="var(--fill-0, white)"/>
<path id="Vector_23" d="M203.163 119.242H206.108V121.823H206.183C206.991 119.815 209.053 118.669 210.967 118.669C213.25 118.669 214.613 119.652 215.237 122.15C216.12 120.225 217.887 118.669 219.913 118.669C225.101 118.669 225.101 123.05 225.101 125.628V141.189H222.009V126.038C222.009 124.361 221.899 121.618 219.359 121.618C217.924 121.618 215.678 122.601 215.678 126.038V141.189H212.586V126.038C212.586 124.361 212.476 121.618 209.935 121.618C208.5 121.618 206.254 122.601 206.254 126.038V141.189H203.162V119.242H203.163Z" fill="var(--fill-0, white)"/>
<path id="Vector_24" d="M237.677 119.242H249.565V122.108L240.731 138.241H249.493V141.189H237.235V138.486L246.181 122.19H237.677V119.242Z" fill="var(--fill-0, white)"/>
<path id="Vector_25" d="M252.765 111.953H255.857V115.884H252.765V111.953ZM252.765 119.242H255.857V141.189H252.765V119.242Z" fill="var(--fill-0, white)"/>
<path id="Vector_26" d="M260.086 119.242H263.178V122.518H263.253C264.137 120.43 265.315 118.669 267.523 118.669C268.147 118.669 268.591 118.752 268.885 118.914V122.272C268.591 122.23 268.221 122.107 267.228 122.107C265.681 122.107 263.178 123.663 263.178 127.308V141.188H260.086V119.242L260.086 119.242Z" fill="var(--fill-0, white)"/>
<path id="Vector_27" d="M280.365 125.916C280.365 123.788 279.593 121.373 277.238 121.373C275.324 121.373 273.372 122.435 273.372 130.462C273.372 133.328 273.41 139.061 277.125 139.061C279.776 139.061 280.364 135.948 280.364 133.573H283.459C283.459 137.053 281.912 141.762 276.981 141.762C272.157 141.762 270.133 138.036 270.133 130.502C270.133 125.016 271.091 118.669 277.163 118.669C282.538 118.669 283.459 123.378 283.459 125.916H280.364L280.365 125.916Z" fill="var(--fill-0, white)"/>
<path id="Vector_28" d="M292.802 118.669C298.507 118.669 299.905 124.033 299.905 130.214C299.905 136.396 298.47 141.762 292.802 141.762C287.095 141.762 285.698 136.398 285.698 130.214C285.698 124.03 287.132 118.669 292.802 118.669ZM296.666 130.214C296.666 125.466 296.042 121.372 292.728 121.372C289.598 121.372 288.937 125.466 288.937 130.214C288.937 134.963 289.564 139.061 292.728 139.061C296.004 139.061 296.666 134.965 296.666 130.214Z" fill="var(--fill-0, white)"/>
<path id="Vector_29" d="M302.992 119.242H305.936V121.823H306.011C306.82 119.815 308.881 118.669 310.795 118.669C315.986 118.669 315.986 123.05 315.986 125.628V141.189H312.894V126.038C312.894 124.361 312.784 121.618 309.987 121.618C308.33 121.618 306.084 122.846 306.084 126.038V141.189H302.992V119.242Z" fill="var(--fill-0, white)"/>
<path id="Vector_30" d="M320.214 111.953H323.306V115.884H320.214V111.953ZM320.214 119.242H323.306V141.189H320.214V119.242Z" fill="var(--fill-0, white)"/>
<path id="Vector_31" d="M340.53 141.189H337.585V138.608H337.512C336.702 140.616 334.64 141.762 332.726 141.762C327.535 141.762 327.535 137.381 327.535 134.8V119.243H330.627V134.393C330.627 136.071 330.74 138.814 333.535 138.814C335.192 138.814 337.437 137.586 337.437 134.393V119.243H340.53V141.189V141.189Z" fill="var(--fill-0, white)"/>
<path id="Vector_32" d="M344.866 119.242H347.811V121.823H347.886C348.695 119.815 350.756 118.669 352.67 118.669C354.953 118.669 356.314 119.652 356.94 122.15C357.823 120.225 359.59 118.669 361.614 118.669C366.805 118.669 366.805 123.05 366.805 125.628V141.189H363.713V126.038C363.713 124.361 363.603 121.618 361.062 121.618C359.627 121.618 357.381 122.601 357.381 126.038V141.189H354.289V126.038C354.289 124.361 354.179 121.618 351.639 121.618C350.204 121.618 347.958 122.601 347.958 126.038V141.189H344.866V119.242H344.866Z" fill="var(--fill-0, white)"/>
<path id="Vector_33" d="M389.359 125.916C389.359 123.788 388.586 121.373 386.23 121.373C384.316 121.373 382.364 122.435 382.364 130.462C382.364 133.328 382.402 139.061 386.12 139.061C388.77 139.061 389.359 135.948 389.359 133.573H392.448C392.448 137.053 390.904 141.762 385.97 141.762C381.149 141.762 379.125 138.036 379.125 130.502C379.125 125.016 380.081 118.669 386.155 118.669C391.53 118.669 392.448 123.378 392.448 125.916H389.359L389.359 125.916Z" fill="var(--fill-0, white)"/>
<path id="Vector_34" d="M393.258 119.242H396.641L400.544 136.848H400.619L404.078 119.242H407.464L401.76 142.662C401.023 145.692 400.212 148.395 396.497 148.395C395.281 148.395 394.765 148.313 394.251 148.273V145.57C394.693 145.652 395.282 145.692 396.052 145.692C397.49 145.692 398.114 144.752 398.483 143.565L399.072 141.639L393.258 119.243V119.242Z" fill="var(--fill-0, white)"/>
<path id="Vector_35" d="M419.241 125.916C419.241 123.788 418.467 121.373 416.111 121.373C414.197 121.373 412.246 122.435 412.246 130.462C412.246 133.328 412.283 139.061 416.001 139.061C418.652 139.061 419.24 135.948 419.24 133.573H422.33C422.33 137.053 420.785 141.762 415.851 141.762C411.03 141.762 409.006 138.036 409.006 130.502C409.006 125.016 409.962 118.669 416.036 118.669C421.411 118.669 422.33 123.378 422.33 125.916H419.24L419.241 125.916Z" fill="var(--fill-0, white)"/>
<path id="Vector_36" d="M424.978 111.953H428.07V141.189H424.978V111.953Z" fill="var(--fill-0, white)"/>
<path id="Vector_37" d="M438.446 118.669C444.154 118.669 445.551 124.033 445.551 130.214C445.551 136.396 444.116 141.762 438.446 141.762C432.741 141.762 431.344 136.398 431.344 130.214C431.344 124.03 432.779 118.669 438.446 118.669ZM442.312 130.214C442.312 125.466 441.685 121.372 438.374 121.372C435.244 121.372 434.583 125.466 434.583 130.214C434.583 134.963 435.207 139.061 438.374 139.061C441.65 139.061 442.312 134.965 442.312 130.214Z" fill="var(--fill-0, white)"/>
<path id="Vector_38" d="M457.103 125.671C457.103 122.885 456.439 121.372 454.193 121.372C453.2 121.372 450.991 121.658 450.991 124.728C450.991 127.308 453.422 127.798 455.85 128.701C458.243 129.601 460.671 130.544 460.671 134.882C460.671 139.511 457.986 141.761 454.305 141.761C447.605 141.761 447.533 136.235 447.533 133.982H450.625C450.625 136.642 451.286 139.06 454.306 139.06C455.299 139.06 457.582 138.528 457.582 135.415C457.582 132.467 455.152 131.854 452.758 130.951C450.365 130.051 447.9 129.273 447.9 124.728C447.9 120.634 450.772 118.669 454.193 118.669C459.938 118.669 460.158 123.09 460.195 125.67H457.103V125.671Z" fill="var(--fill-0, white)"/>
<path id="Vector_39" d="M463.799 111.953H466.891V115.884H463.799V111.953ZM463.799 119.242H466.891V141.189H463.799V119.242Z" fill="var(--fill-0, white)"/>
<path id="Vector_40" d="M471.305 111.953H474.397V141.189H471.305V111.953Z" fill="var(--fill-0, white)"/>
<path id="Vector_41" d="M478.812 111.953H481.904V115.884H478.812V111.953ZM478.812 119.242H481.904V141.189H478.812V119.242Z" fill="var(--fill-0, white)"/>
<path id="Vector_42" d="M495.519 125.916C495.519 123.788 494.748 121.373 492.392 121.373C490.478 121.373 488.527 122.435 488.527 130.462C488.527 133.328 488.564 139.061 492.28 139.061C494.93 139.061 495.519 135.948 495.519 133.573H498.613C498.613 137.053 497.066 141.762 492.135 141.762C487.311 141.762 485.287 138.036 485.287 130.502C485.287 125.016 486.246 118.669 492.317 118.669C497.693 118.669 498.613 123.378 498.613 125.916H495.519L495.519 125.916Z" fill="var(--fill-0, white)"/>
<path id="Vector_43" d="M501.329 125.876C501.329 120.88 503.245 118.669 507.957 118.669C513.956 118.669 513.956 122.683 513.956 124.973V137.218C513.956 138.118 513.956 138.978 514.912 138.978C515.319 138.978 515.501 138.895 515.648 138.773V141.229C515.428 141.271 514.617 141.433 513.847 141.433C512.669 141.433 511.196 141.433 511.047 138.608H510.974C509.981 140.573 508.067 141.761 506.225 141.761C502.544 141.761 500.853 139.306 500.853 135.375C500.853 132.304 502.031 130.174 504.569 129.314L508.729 127.923C510.975 127.143 510.975 126.448 510.975 124.605C510.975 122.558 509.869 121.372 507.808 121.372C504.424 121.372 504.424 124.893 504.424 125.671V125.875H501.329L501.329 125.876ZM510.864 129.234C509.723 130.584 506.998 130.869 505.601 131.812C504.605 132.51 504.091 133.367 504.091 135.292C504.091 137.503 504.79 139.061 506.889 139.061C508.913 139.061 510.864 137.135 510.864 134.882V129.234Z" fill="var(--fill-0, white)"/>
<path id="Vector_44" d="M519.434 112.856H522.526V119.242H525.95V121.945H522.526V136.03C522.526 137.791 522.93 138.486 524.55 138.486C525.213 138.486 525.58 138.406 525.912 138.363V141.189C525.508 141.271 524.696 141.434 523.409 141.434C520.207 141.434 519.434 139.961 519.434 137.095V121.945H516.561V119.242H519.434V112.856Z" fill="var(--fill-0, white)"/>
<path id="Vector_45" d="M530.621 130.624C530.621 133.982 530.621 139.061 534.412 139.061C537.356 139.061 537.761 135.621 537.761 133.983H540.853C540.853 136.316 539.602 141.762 534.227 141.762C529.406 141.762 527.382 138.036 527.382 130.502C527.382 125.016 528.337 118.67 534.412 118.67C540.448 118.67 541 124.524 541 129.234V130.625H530.621V130.624ZM537.761 127.924V126.736C537.761 124.278 537.062 121.373 534.34 121.373C531.101 121.373 530.731 125.794 530.731 127.104V127.924H537.761V127.924Z" fill="var(--fill-0, white)"/>
<path id="Vector_46" d="M129.972 160.21H132.917V162.913H132.992C133.396 161.275 135.125 159.637 137.261 159.637C141.936 159.637 143.702 164.263 143.702 170.774C143.702 175.768 142.377 182.729 137.261 182.729C135.495 182.729 133.837 181.541 133.139 179.659H133.064V189.363H129.972V160.21L129.972 160.21ZM136.857 179.781C139.727 179.781 140.463 176.423 140.463 170.774C140.463 165.941 139.727 162.585 136.857 162.585C133.433 162.585 132.879 166.188 132.879 171.182C132.879 175.443 133.543 179.781 136.857 179.781V179.781Z" fill="var(--fill-0, white)"/>
<path id="Vector_47" d="M153.158 159.637C158.863 159.637 160.26 165 160.26 171.182C160.26 177.363 158.825 182.729 153.158 182.729C147.451 182.729 146.053 177.366 146.053 171.182C146.053 164.998 147.488 159.637 153.158 159.637ZM157.021 171.182C157.021 166.433 156.397 162.34 153.083 162.34C149.954 162.34 149.293 166.433 149.293 171.182C149.293 175.93 149.919 180.028 153.083 180.028C156.36 180.028 157.021 175.932 157.021 171.182Z" fill="var(--fill-0, white)"/>
<path id="Vector_48" d="M162.057 160.21H165.296L168.463 178.143H168.535L171.887 160.21H175.53L178.807 178.143H178.879L181.936 160.21H185.175L180.499 182.156H177.113L173.654 164.223H173.579L170.268 182.156H166.659L162.057 160.21Z" fill="var(--fill-0, white)"/>
<path id="Vector_49" d="M200.553 182.156H197.608V179.453H197.533C197.129 181.091 195.4 182.729 193.266 182.729C188.589 182.729 186.822 178.103 186.822 171.182C186.822 166.596 187.486 159.637 193.044 159.637C194.81 159.637 196.687 160.825 197.388 162.707H197.461V152.92H200.553V182.156L200.553 182.156ZM193.671 179.781C197.094 179.781 197.646 176.178 197.646 171.182C197.646 166.926 196.982 162.585 193.671 162.585C190.798 162.585 190.062 165.94 190.062 171.182C190.062 176.423 190.798 179.781 193.671 179.781Z" fill="var(--fill-0, white)"/>
<path id="Vector_50" d="M207.176 171.592C207.176 174.95 207.176 180.029 210.966 180.029C213.911 180.029 214.315 176.588 214.315 174.95H217.407C217.407 177.283 216.157 182.73 210.782 182.73C205.96 182.73 203.936 179.004 203.936 171.47C203.936 165.984 204.892 159.637 210.966 159.637C217.003 159.637 217.555 165.491 217.555 170.202V171.592H207.176V171.592ZM214.316 168.891V167.704C214.316 165.246 213.617 162.34 210.894 162.34C207.655 162.34 207.286 166.761 207.286 168.072V168.892H214.316V168.891Z" fill="var(--fill-0, white)"/>
<path id="Vector_51" d="M220.934 160.21H224.026V163.485H224.101C224.984 161.397 226.162 159.637 228.371 159.637C228.997 159.637 229.436 159.719 229.73 159.882V163.24C229.436 163.197 229.069 163.075 228.076 163.075C226.528 163.075 224.025 164.63 224.025 168.276V182.156H220.933V160.209L220.934 160.21Z" fill="var(--fill-0, white)"/>
<path id="Vector_52" d="M241.579 162.913H238.71V160.21H241.579V157.629C241.579 154.313 242.867 152.593 245.849 152.593H248.095V155.541H246.66C245.333 155.541 244.671 156.114 244.671 157.629V160.21H248.057V162.913H244.671V182.156H241.579L241.579 162.913Z" fill="var(--fill-0, white)"/>
<path id="Vector_53" d="M256.338 159.637C262.043 159.637 263.44 165 263.44 171.182C263.44 177.363 262.005 182.729 256.338 182.729C250.631 182.729 249.233 177.366 249.233 171.182C249.233 164.998 250.668 159.637 256.338 159.637ZM260.201 171.182C260.201 166.433 259.577 162.34 256.263 162.34C253.133 162.34 252.472 166.433 252.472 171.182C252.472 175.93 253.099 180.028 256.263 180.028C259.539 180.028 260.201 175.932 260.201 171.182Z" fill="var(--fill-0, white)"/>
<path id="Vector_54" d="M266.525 160.21H269.617V163.485H269.692C270.575 161.397 271.753 159.637 273.961 159.637C274.585 159.637 275.029 159.719 275.324 159.882V163.24C275.029 163.197 274.66 163.075 273.667 163.075C272.119 163.075 269.616 164.63 269.616 168.276V182.156H266.524V160.209L266.525 160.21Z" fill="var(--fill-0, white)"/>
<path id="Vector_55" d="M292.398 159.637C298.103 159.637 299.501 165 299.501 171.182C299.501 177.363 298.066 182.729 292.398 182.729C286.691 182.729 285.293 177.366 285.293 171.182C285.293 164.998 286.728 159.637 292.398 159.637ZM296.261 171.182C296.261 166.433 295.637 162.34 292.323 162.34C289.194 162.34 288.533 166.433 288.533 171.182C288.533 175.93 289.159 180.028 292.323 180.028C295.6 180.028 296.261 175.932 296.261 171.182Z" fill="var(--fill-0, white)"/>
<path id="Vector_56" d="M302.588 160.21H305.68V163.485H305.755C306.638 161.397 307.816 159.637 310.024 159.637C310.651 159.637 311.09 159.719 311.384 159.882V163.24C311.09 163.197 310.723 163.075 309.73 163.075C308.182 163.075 305.679 164.63 305.679 168.276V182.156H302.587V160.209L302.588 160.21Z" fill="var(--fill-0, white)"/>
<path id="Vector_57" d="M313.001 166.843C313.001 161.848 314.913 159.637 319.625 159.637C325.626 159.637 325.626 163.65 325.626 165.94V178.185C325.626 179.085 325.626 179.945 326.582 179.945C326.986 179.945 327.171 179.863 327.318 179.741V182.196C327.099 182.239 326.288 182.401 325.514 182.401C324.336 182.401 322.864 182.401 322.72 179.575H322.645C321.651 181.541 319.737 182.729 317.896 182.729C314.215 182.729 312.523 180.273 312.523 176.342C312.523 173.272 313.701 171.141 316.241 170.281L320.399 168.891C322.645 168.111 322.645 167.416 322.645 165.573C322.645 163.525 321.542 162.34 319.48 162.34C316.091 162.34 316.091 165.861 316.091 166.638V166.843H313.002L313.001 166.843ZM322.534 170.202C321.391 171.552 318.669 171.837 317.269 172.78C316.276 173.477 315.762 174.335 315.762 176.26C315.762 178.471 316.46 180.028 318.559 180.028C320.583 180.028 322.534 178.103 322.534 175.85V170.202Z" fill="var(--fill-0, white)"/>
<path id="Vector_58" d="M330.001 152.921H333.093V182.156H330.001V152.921Z" fill="var(--fill-0, white)"/>
<path id="Vector_59" d="M354.622 166.638C354.622 163.853 353.958 162.34 351.712 162.34C350.719 162.34 348.51 162.625 348.51 165.696C348.51 168.276 350.941 168.766 353.369 169.669C355.762 170.569 358.19 171.512 358.19 175.85C358.19 180.478 355.505 182.729 351.824 182.729C345.124 182.729 345.051 177.203 345.051 174.95H348.143C348.143 177.61 348.805 180.028 351.825 180.028C352.818 180.028 355.101 179.495 355.101 176.382C355.101 173.434 352.67 172.821 350.277 171.919C347.884 171.019 345.418 170.241 345.418 165.695C345.418 161.602 348.291 159.637 351.712 159.637C357.457 159.637 357.676 164.057 357.714 166.638H354.622V166.638Z" fill="var(--fill-0, white)"/>
<path id="Vector_60" d="M374.124 182.156H371.18V179.576H371.107C370.296 181.584 368.235 182.729 366.321 182.729C361.13 182.729 361.13 178.348 361.13 175.768V160.21H364.222V175.36C364.222 177.038 364.335 179.781 367.129 179.781C368.787 179.781 371.032 178.553 371.032 175.36V160.21H374.124V182.157V182.156Z" fill="var(--fill-0, white)"/>
<path id="Vector_61" d="M386.634 166.638C386.634 163.853 385.97 162.34 383.725 162.34C382.731 162.34 380.523 162.625 380.523 165.696C380.523 168.276 382.953 168.766 385.381 169.669C387.775 170.569 390.203 171.512 390.203 175.85C390.203 180.478 387.517 182.729 383.837 182.729C377.136 182.729 377.064 177.203 377.064 174.95H380.156C380.156 177.61 380.817 180.028 383.837 180.028C384.83 180.028 387.114 179.495 387.114 176.382C387.114 173.434 384.683 172.821 382.29 171.919C379.897 171.019 377.431 170.241 377.431 165.695C377.431 161.602 380.303 159.637 383.725 159.637C389.469 159.637 389.689 164.057 389.726 166.638H386.634V166.638Z" fill="var(--fill-0, white)"/>
<path id="Vector_62" d="M393.145 160.21H396.09V162.913H396.165C396.569 161.275 398.299 159.637 400.435 159.637C405.109 159.637 406.875 164.263 406.875 170.774C406.875 175.768 405.55 182.729 400.435 182.729C398.668 182.729 397.011 181.541 396.312 179.659H396.237V189.363H393.145V160.21L393.145 160.21ZM400.03 179.781C402.9 179.781 403.636 176.423 403.636 170.774C403.636 165.941 402.9 162.585 400.03 162.585C396.607 162.585 396.052 166.188 396.052 171.182C396.052 175.443 396.716 179.781 400.03 179.781V179.781Z" fill="var(--fill-0, white)"/>
<path id="Vector_63" d="M412.76 171.592C412.76 174.95 412.76 180.029 416.551 180.029C419.495 180.029 419.9 176.588 419.9 174.95H422.992C422.992 177.283 421.741 182.73 416.366 182.73C411.545 182.73 409.521 179.004 409.521 171.47C409.521 165.984 410.476 159.637 416.551 159.637C422.587 159.637 423.139 165.491 423.139 170.202V171.592H412.76V171.592ZM419.9 168.891V167.704C419.9 165.246 419.201 162.34 416.476 162.34C413.237 162.34 412.87 166.761 412.87 168.072V168.892H419.9V168.891Z" fill="var(--fill-0, white)"/>
<path id="Vector_64" d="M426.52 160.21H429.465V162.79H429.54C430.348 160.782 432.41 159.637 434.324 159.637C439.515 159.637 439.515 164.018 439.515 166.596V182.156H436.422V167.006C436.422 165.328 436.313 162.585 433.515 162.585C431.858 162.585 429.612 163.813 429.612 167.006V182.156H426.52V160.21Z" fill="var(--fill-0, white)"/>
<path id="Vector_65" d="M452.025 166.638C452.025 163.853 451.361 162.34 449.117 162.34C448.122 162.34 445.913 162.625 445.913 165.696C445.913 168.276 448.344 168.766 450.772 169.669C453.165 170.569 455.596 171.512 455.596 175.85C455.596 180.478 452.908 182.729 449.227 182.729C442.527 182.729 442.455 177.203 442.455 174.95H445.547C445.547 177.61 446.208 180.028 449.228 180.028C450.221 180.028 452.502 179.495 452.502 176.382C452.502 173.434 450.074 172.821 447.681 171.919C445.29 171.019 442.822 170.241 442.822 165.695C442.822 161.602 445.694 159.637 449.118 159.637C454.858 159.637 455.08 164.057 455.118 166.638H452.025L452.025 166.638Z" fill="var(--fill-0, white)"/>
<path id="Vector_66" d="M458.718 152.921H461.81V156.852H458.718V152.921ZM458.718 160.21H461.81V182.156H458.718V160.21Z" fill="var(--fill-0, white)"/>
<path id="Vector_67" d="M472.186 159.637C477.893 159.637 479.291 165 479.291 171.182C479.291 177.363 477.856 182.729 472.186 182.729C466.481 182.729 465.084 177.366 465.084 171.182C465.084 164.998 466.519 159.637 472.186 159.637ZM476.052 171.182C476.052 166.433 475.425 162.34 472.114 162.34C468.984 162.34 468.323 166.433 468.323 171.182C468.323 175.93 468.947 180.028 472.114 180.028C475.39 180.028 476.052 175.932 476.052 171.182Z" fill="var(--fill-0, white)"/>
<path id="Vector_68" d="M482.378 160.21H485.323V162.79H485.398C486.206 160.782 488.267 159.637 490.181 159.637C495.372 159.637 495.372 164.018 495.372 166.596V182.156H492.28V167.006C492.28 165.328 492.17 162.585 489.373 162.585C487.716 162.585 485.47 163.813 485.47 167.006V182.156H482.378V160.21Z" fill="var(--fill-0, white)"/>
</g>
<path id="Vector_69" d="M118.236 60.3137V33.9489L97.2584 33.9638V60.3137H118.236Z" fill="var(--fill-0, white)"/>
<path id="Vector_70" d="M109.439 49.5516V56.3381H111.468V52.2648C111.468 52.2648 111.468 50.9044 112.812 50.9044H114.841V49.5516H111.8C111.8 49.5516 110.612 49.724 110.799 49.9817C110.951 50.2194 110.497 49.5516 110.497 49.5516H109.484" fill="var(--fill-0, black)"/>
<path id="Vector_71" d="M100.64 38.5172H110.886C113.409 38.5172 114.335 39.8824 114.335 42.768C114.345 45.7386 112.125 46.9139 110.784 46.9139H103.26V56.3428H100.64V38.6999M103.357 44.6406H110.105C110.105 44.6406 111.468 44.8156 111.468 42.7676C111.283 40.8199 110.612 40.732 110.11 40.732H103.357V44.7178" fill="var(--fill-0, black)"/>
<path id="Vector_72" d="M500.395 77.4241H473.112L486.839 43.5178C486.839 43.5178 500.485 77.4241 500.395 77.4241ZM471.043 82.635H502.547L506.761 93.2474H512.778L487.024 30.663H484.751L459.084 93.2474H466.74L471.043 82.635ZM501.621 35.4114C502.055 34.4239 502.644 33.5687 503.39 32.8432C504.136 32.1182 505.004 31.548 505.998 31.1328C506.989 30.7201 508.042 30.5127 509.157 30.5127C510.272 30.5127 511.324 30.7201 512.307 31.1328C513.292 31.548 514.154 32.1182 514.892 32.8432C515.631 33.5682 516.218 34.4234 516.652 35.4114C517.086 36.3967 517.303 37.4644 517.303 38.6094C517.303 39.7847 517.086 40.8699 516.652 41.865C516.218 42.8576 515.631 43.7205 514.892 44.4528C514.154 45.1855 513.292 45.7557 512.307 46.1632C511.324 46.5682 510.273 46.7709 509.157 46.7709C508.041 46.7709 506.988 46.5682 505.998 46.1632C505.004 45.7557 504.136 45.1855 503.39 44.4528C502.644 43.7201 502.055 42.8576 501.621 41.865C501.187 40.8699 500.969 39.7847 500.969 38.6094C500.969 37.464 501.187 36.3963 501.621 35.4114ZM502.956 41.3849C503.298 42.2325 503.767 42.9703 504.368 43.5929C504.97 44.2181 505.679 44.708 506.497 45.0631C507.315 45.4181 508.201 45.5956 509.157 45.5956C510.098 45.5956 510.974 45.4181 511.785 45.0631C512.596 44.708 513.302 44.2181 513.904 43.5929C514.505 42.9703 514.974 42.2325 515.316 41.3849C515.655 40.5374 515.825 39.6122 515.825 38.6094C515.825 37.6394 515.655 36.7317 515.316 35.8889C514.974 35.0486 514.505 34.3185 513.904 33.7035C513.302 33.086 512.596 32.6008 511.785 32.2432C510.974 31.8881 510.098 31.7106 509.157 31.7106C508.201 31.7106 507.315 31.8881 506.497 32.2432C505.679 32.6008 504.97 33.086 504.368 33.7035C503.767 34.3185 503.298 35.0486 502.956 35.8889C502.616 36.7317 502.447 37.6394 502.447 38.6094C502.447 39.6122 502.616 40.5374 502.956 41.3849ZM509.656 33.8862C510.786 33.8862 511.623 34.1136 512.166 34.5613C512.708 35.0115 512.98 35.6939 512.98 36.6067C512.98 37.4644 512.74 38.0918 512.264 38.4895C511.784 38.8898 511.191 39.1245 510.482 39.197L513.198 43.3979H511.613L509.027 39.3071H507.463V43.3979H505.988V33.8862H509.656ZM509.005 38.1097C509.34 38.1097 509.654 38.0999 509.951 38.0772C510.248 38.0546 510.513 37.9949 510.745 37.892C510.974 37.7922 511.159 37.6347 511.299 37.4243C511.436 37.2144 511.503 36.9191 511.503 36.5418C511.503 36.2243 511.444 35.9691 511.319 35.7818C511.197 35.5919 511.037 35.4468 510.842 35.3465C510.648 35.2441 510.42 35.1767 510.168 35.1391C509.913 35.1041 509.664 35.084 509.419 35.084H507.463V38.1097H509.005Z" fill="var(--fill-0, white)"/>
</g>
<defs>
<clipPath id="clip0_1524_6298">
<rect width="541" height="190" fill="white"/>
</clipPath>
</defs>
</svg>
