<svg preserveAspectRatio="none" width="100%" height="100%" overflow="visible" style="display: block;" viewBox="0 0 5 6" fill="none" xmlns="http://www.w3.org/2000/svg">
<path id="Vector" d="M4.16705 5.67301C4.01102 5.67301 3.89169 5.61767 3.79991 5.49775L0.945389 1.87256V5.19334C0.945389 5.46085 0.734282 5.66379 0.468105 5.66379C0.201928 5.66379 0 5.45162 0 5.19334V0.479669C0 0.221386 0.19275 0 0.495641 0C0.624141 0 0.770996 0.0737975 0.844424 0.175266L3.69895 3.80046V0.479669C3.69895 0.221386 3.8917 0 4.16705 0C4.44241 0 4.64433 0.221386 4.64433 0.479669V5.19334C4.64433 5.45162 4.44241 5.66379 4.16705 5.66379V5.67301Z" fill="var(--fill-0, white)"/>
</svg>
