<svg preserveAspectRatio="none" width="100%" height="100%" overflow="visible" style="display: block;" viewBox="0 0 13 17" fill="none" xmlns="http://www.w3.org/2000/svg">
<path id="Vector" d="M0.00626935 0.00624778H6.46725C7.09453 0.00624778 7.70926 0.081234 8.31773 0.224957C8.92619 0.374929 9.46564 0.612385 9.94238 0.949821C10.4191 1.28726 10.8018 1.71843 11.1028 2.24333C11.3977 2.77448 11.5482 3.41186 11.5482 4.15547C11.5482 5.08655 11.2848 5.85516 10.7516 6.46754C10.2184 7.07368 9.52837 7.5111 8.669 7.77355V7.82354C9.18337 7.88602 9.66638 8.02975 10.1055 8.25471C10.5508 8.47966 10.9272 8.76711 11.2409 9.11704C11.5545 9.46698 11.7991 9.87315 11.981 10.3293C12.1629 10.7855 12.2508 11.2791 12.2508 11.8103C12.2508 12.7101 12.0689 13.46 11.7113 14.0599C11.3538 14.6598 10.877 15.1409 10.2937 15.5033C9.71028 15.8658 9.0391 16.1282 8.28009 16.2845C7.52108 16.4407 6.7558 16.5157 5.9717 16.5157H0V0L0.00626935 0.00624778ZM2.95448 6.72374H5.64552C6.63035 6.72374 7.36426 6.53628 7.85981 6.1551C8.34909 5.77392 8.6 5.27401 8.6 4.64913C8.6 3.93676 8.34909 3.39936 7.841 3.04943C7.3329 2.69949 6.51743 2.52453 5.3946 2.52453H2.96075V6.72374H2.95448ZM2.95448 14.0036H5.6706C6.04697 14.0036 6.44843 13.9786 6.87498 13.9349C7.30153 13.8911 7.69672 13.7787 8.05427 13.61C8.41182 13.4412 8.70664 13.1913 8.94501 12.8726C9.1771 12.5539 9.29628 12.1227 9.29628 11.5791C9.29628 10.7105 9.00773 10.1044 8.44318 9.76067C7.87235 9.41699 6.98789 9.24827 5.78351 9.24827H2.94821V14.0099L2.95448 14.0036Z" fill="var(--fill-0, #242155)"/>
</svg>
