<svg preserveAspectRatio="none" width="100%" height="100%" overflow="visible" style="display: block;" viewBox="0 0 2 3" fill="none" xmlns="http://www.w3.org/2000/svg">
<path id="Vector" d="M1.47639 0.0546682C1.29282 -0.0560247 1.06335 0.00854647 0.944032 0.18381C0.944032 0.18381 0.944033 0.183811 0.934854 0.202259C0.934854 0.211484 0.925676 0.229932 0.916497 0.239156C0.769641 0.506664 0.154679 1.42911 0.0628939 1.55825C-0.0656054 1.78886 0.00782328 2.08404 0.237286 2.22241C0.46675 2.36077 0.760463 2.27775 0.89814 2.04714C0.89814 2.04714 0.89814 2.02869 0.907318 2.02869C0.907318 2.02869 0.907318 2.01024 0.907318 2.00102C0.907318 1.98257 0.925676 1.97335 0.925676 1.9549C1.045 1.68739 1.46721 0.857192 1.59571 0.635806C1.59571 0.635806 1.60489 0.617358 1.61407 0.608134C1.61407 0.608134 1.61407 0.608134 1.61407 0.598909C1.61407 0.598909 1.61407 0.598909 1.61407 0.589685C1.70585 0.405197 1.6416 0.165361 1.45803 0.0638928L1.47639 0.0546682Z" fill="var(--fill-0, #1265A5)"/>
</svg>
