<svg preserveAspectRatio="none" width="100%" height="100%" overflow="visible" style="display: block;" viewBox="0 0 12 17" fill="none" xmlns="http://www.w3.org/2000/svg">
<path id="Vector" d="M0 0H5.57025C6.36689 0 7.13217 0.0749865 7.87864 0.231207C8.61883 0.387428 9.27119 0.649879 9.83575 1.01231C10.4003 1.37474 10.8457 1.8684 11.1844 2.48079C11.5169 3.09317 11.6862 3.86178 11.6862 4.78036C11.6862 5.82391 11.5043 6.66125 11.1468 7.29864C10.7892 7.93602 10.3062 8.42967 9.69774 8.77961C9.08928 9.12954 8.38046 9.367 7.57754 9.49197C6.77462 9.61695 5.93407 9.67944 5.06215 9.67944H2.95449V16.5157H0.00627414V0H0ZM4.72969 7.16116C5.14997 7.16116 5.58907 7.14866 6.04071 7.11117C6.49235 7.07992 6.91263 6.98619 7.29527 6.82997C7.67791 6.67375 7.99155 6.44254 8.22991 6.1301C8.47455 5.81766 8.59373 5.38649 8.59373 4.8241C8.59373 4.31169 8.48709 3.90552 8.26755 3.59933C8.048 3.29313 7.76573 3.06193 7.42699 2.89946C7.08199 2.73699 6.69935 2.63076 6.27907 2.58702C5.85879 2.54327 5.45106 2.51828 5.06215 2.51828H2.95449V7.16116H4.73596H4.72969Z" fill="var(--fill-0, #242155)"/>
</svg>
