<svg preserveAspectRatio="none" width="100%" height="100%" overflow="visible" style="display: block;" viewBox="0 0 6 6" fill="none" xmlns="http://www.w3.org/2000/svg">
<path id="Vector" d="M5.06654 5.66379C4.80037 5.66379 4.59844 5.45163 4.59844 5.19334V2.42602L3.19413 5.4055C3.11152 5.58077 2.96466 5.67301 2.78109 5.67301C2.57917 5.67301 2.45984 5.58999 2.36806 5.4055L0.945388 2.42602V5.18412C0.945388 5.4424 0.734282 5.66379 0.468104 5.66379C0.201927 5.66379 0 5.4424 0 5.18412V0.470447C0 0.212163 0.201927 0 0.468104 0C0.688389 0 0.826067 0.129141 0.917852 0.295181L2.79027 4.19711L4.64433 0.295181C4.72694 0.119917 4.88297 0 5.0849 0C5.37861 0 5.56219 0.202937 5.56219 0.47967V5.19334C5.56219 5.45163 5.36026 5.66379 5.0849 5.66379H5.06654Z" fill="var(--fill-0, white)"/>
</svg>
