<svg preserveAspectRatio="none" width="100%" height="100%" overflow="visible" style="display: block;" viewBox="0 0 3 4" fill="none" xmlns="http://www.w3.org/2000/svg">
<path id="Vector" d="M2.41395 3.70821H0.339606C0.156036 3.70821 0 3.56062 0 3.36691V0.341302C0 0.156814 0.156036 0 0.339606 0H2.33135C2.50574 0 2.65259 0.12914 2.65259 0.313628C2.65259 0.498116 2.50574 0.627258 2.33135 0.627258H0.670034V1.5128H1.57871C1.7531 1.5128 1.89078 1.65117 1.89078 1.82643C1.89078 2.0017 1.74392 2.14006 1.57871 2.14006H0.670034V3.07173H2.41395C2.58835 3.07173 2.7352 3.21009 2.7352 3.38536C2.7352 3.56062 2.58835 3.69899 2.41395 3.69899V3.70821Z" fill="var(--fill-0, white)"/>
</svg>
