<svg preserveAspectRatio="none" width="100%" height="100%" overflow="visible" style="display: block;" viewBox="0 0 115 89" fill="none" xmlns="http://www.w3.org/2000/svg">
<g id="dosing-clock-icon-no white BG 1" clip-path="url(#clip0_1739_6273)">
<g id="Group 107202">
<path id="Line 1425" d="M98.2656 39.553H104.261" stroke="var(--stroke-0, #FDB515)" stroke-width="3.4375" stroke-miterlimit="10" stroke-linecap="round"/>
<path id="Line 1426" d="M46.6895 39.5529H52.6879" stroke="var(--stroke-0, #FDB515)" stroke-width="3.4375" stroke-miterlimit="10" stroke-linecap="round"/>
<path id="Line 1427" d="M75.4766 10.7476V16.7474" stroke="var(--stroke-0, #FDB515)" stroke-width="3.4375" stroke-miterlimit="10" stroke-linecap="round"/>
<path id="Line 1428" d="M75.4766 62.3584V68.3613" stroke="var(--stroke-0, #FDB515)" stroke-width="3.4375" stroke-miterlimit="10" stroke-linecap="round"/>
<path id="Line 1429" d="M97.2891 26.9516L100.405 25.1501" stroke="var(--stroke-0, #FDB515)" stroke-width="3.4375" stroke-miterlimit="10" stroke-linecap="round"/>
<path id="Line 1430" d="M61.082 14.6052L62.8822 17.7233" stroke="var(--stroke-0, #FDB515)" stroke-width="3.4375" stroke-miterlimit="10" stroke-linecap="round"/>
<path id="Line 1431" d="M88.0684 61.3823L89.8685 64.5004" stroke="var(--stroke-0, #FDB515)" stroke-width="3.4375" stroke-miterlimit="10" stroke-linecap="round"/>
<path id="Line 1432" d="M88.0684 17.7233L89.8685 14.6052" stroke="var(--stroke-0, #FDB515)" stroke-width="3.4375" stroke-miterlimit="10" stroke-linecap="round"/>
<path id="Line 1433" d="M61.082 64.5004L62.8822 61.3823" stroke="var(--stroke-0, #FDB515)" stroke-width="3.4375" stroke-miterlimit="10" stroke-linecap="round"/>
<path id="Line 1434" d="M50.5469 25.1501L53.6626 26.9516" stroke="var(--stroke-0, #FDB515)" stroke-width="3.4375" stroke-miterlimit="10" stroke-linecap="round"/>
<path id="Line 1435" d="M97.2891 52.1572L100.405 53.9587" stroke="var(--stroke-0, #FDB515)" stroke-width="3.4375" stroke-miterlimit="10" stroke-linecap="round"/>
<path id="Path 111609" d="M64.6816 32.3531L75.4763 39.5559L92.4748 29.7352" stroke="var(--stroke-0, #FDB515)" stroke-width="3.4375" stroke-linecap="round" stroke-linejoin="round"/>
</g>
<path id="Path 111611" d="M42.1752 71.3505C42.1844 70.795 41.7428 70.3377 41.1908 70.3285C40.6357 70.3193 40.1788 70.7612 40.1696 71.3136C40.1696 71.3259 40.1696 71.3382 40.1696 71.3474C40.1635 76.3345 36.1277 80.3732 31.1444 80.3794C30.5893 80.3702 30.1324 80.8121 30.1232 81.3645C30.114 81.92 30.5556 82.3773 31.1076 82.3865C31.1199 82.3865 31.1321 82.3865 31.1413 82.3865C37.2317 82.3803 42.166 77.4424 42.1721 71.3474L42.1752 71.3505Z" fill="var(--fill-0, #FDB515)"/>
<path id="Vector" d="M110.011 0H40.94C38.1861 0 35.9567 2.23421 35.9505 4.99014V34.1023C34.7453 33.7924 33.4788 33.6297 32.1755 33.6297C29.026 33.6297 26.0973 34.5903 23.6716 36.2353C21.1723 34.5381 18.2129 33.6236 15.1739 33.6297C6.79573 33.6267 0 40.4244 0 48.8119V73.8117C0 82.1992 6.79573 89 15.1769 89C18.2191 89.0031 21.1784 88.0854 23.6747 86.3914C26.1004 88.0394 29.0291 89 32.1816 89C38.7289 89 44.3072 84.8508 46.4355 79.0381H110.014C112.767 79.0381 114.997 76.8039 115.003 74.048V4.99014C115 2.23421 112.767 0.00306897 110.014 0H110.011ZM4.20133 73.5201V49.1065C4.20133 42.8796 9.246 37.8311 15.4683 37.8311C17.2439 37.8311 18.9827 38.2547 20.5559 39.0557C18.3387 41.695 17.0047 45.0984 17.0047 48.818V73.8178C17.0047 77.5374 18.3417 80.9409 20.5589 83.5802C18.9888 84.3781 17.2469 84.8047 15.4713 84.8017C9.24907 84.8017 4.2044 79.7532 4.2044 73.5263L4.20133 73.5201ZM43.7368 73.5201C43.7368 79.7471 38.6921 84.7955 32.4699 84.7955C26.2476 84.7955 21.2029 79.7471 21.2029 73.5201V49.1065C21.2029 42.8796 26.2476 37.8311 32.4699 37.8311C33.6843 37.8311 34.8557 38.0275 35.9505 38.3835V38.4603C35.9873 38.448 36.0272 38.4357 36.064 38.4234C40.5229 39.9272 43.7337 44.1409 43.7337 49.1096V73.5232L43.7368 73.5201ZM110.777 74.0511C110.777 74.4746 110.434 74.8183 110.011 74.8183H47.3156C47.3371 74.4869 47.3524 74.1523 47.3524 73.8148V48.815C47.3524 43.3645 44.482 38.5892 40.1733 35.9069V4.99014C40.1733 4.56662 40.5168 4.2229 40.94 4.2229H110.011C110.434 4.2229 110.777 4.56662 110.777 4.99014V74.0511Z" fill="var(--fill-0, white)"/>
</g>
<defs>
<clipPath id="clip0_1739_6273">
<rect width="115" height="89" fill="white"/>
</clipPath>
</defs>
</svg>
