<svg preserveAspectRatio="none" width="100%" height="100%" overflow="visible" style="display: block;" viewBox="0 0 7 12" fill="none" xmlns="http://www.w3.org/2000/svg">
<path id="Vector" d="M6.23091 5.3912L1.27101 0.129389C1.18475 0.0431296 1.07693 0 0.969103 0C0.861279 0 0.753455 0.0431296 0.667196 0.118606L0.128076 0.657726C-0.0336602 0.819462 -0.0444426 1.07824 0.128076 1.25076L4.36556 5.7578L0.117293 10.2648C-0.0444426 10.4266 -0.0336602 10.6961 0.117293 10.8579L0.656413 11.397C0.828932 11.5587 1.08771 11.5587 1.26023 11.397L6.20935 6.13519C6.30639 6.03814 6.33874 5.89797 6.30639 5.76858C6.32796 5.6392 6.30639 5.50981 6.20935 5.40198L6.23091 5.3912Z" fill="var(--fill-0, #003B45)"/>
</svg>
