<svg preserveAspectRatio="none" width="100%" height="100%" overflow="visible" style="display: block;" viewBox="0 0 160 160" fill="none" xmlns="http://www.w3.org/2000/svg">
<g id="icon_4.0_TRUQAP_Resources" clip-path="url(#clip0_1609_6858)">
<g id="Rectangle 18106">
</g>
<g id="Rectangle 18180">
</g>
<path id="Vector" d="M31.4915 113.841C31.1232 113.841 30.7804 113.702 30.5391 113.435L21.9931 104.648C21.7391 104.394 21.5994 104.051 21.6121 103.695C21.6121 102.971 22.2089 102.375 22.9455 102.375H26.3359V87.9237C26.3359 87.1872 26.9328 86.5777 27.682 86.5777C28.4312 86.5777 29.028 87.1745 29.028 87.9237V103.708C29.028 104.444 28.4312 105.041 27.682 105.054H26.1328L31.5042 110.578L36.8756 105.054H35.3264C34.5899 105.054 33.9931 104.444 33.9804 103.708V87.6444C33.9804 86.9079 34.5772 86.2983 35.3264 86.2983C36.0756 86.2983 36.6724 86.8952 36.6724 87.6444V102.362H40.0502C40.5963 102.362 41.0788 102.679 41.282 103.187L41.3455 103.352C41.4724 103.809 41.3455 104.305 41.0153 104.648L32.4693 113.435C32.1899 113.702 31.8597 113.841 31.5169 113.841H31.4915Z" fill="var(--fill-0, #FDB515)"/>
<path id="Vector_2" d="M137.156 126.565C136.915 126.565 136.686 126.514 136.471 126.425L128.979 123.225V124.813C128.979 125.46 128.623 126.057 128.052 126.362C127.798 126.501 127.506 126.565 127.213 126.565C126.871 126.565 126.54 126.463 126.248 126.273L108.953 114.832L85.3595 125.638C85.1309 125.74 84.8769 125.79 84.623 125.803C83.6579 125.803 82.8706 125.016 82.8706 124.038V120.076L82.4007 120.343C82.2611 120.419 82.1087 120.482 81.9436 120.508L73.2706 122.387C73.1436 122.413 73.0293 122.425 72.9023 122.425C71.9373 122.425 71.15 121.638 71.1373 120.673V104.444H70.1976V104.762C70.1976 104.876 70.2484 104.952 70.3119 105.016H49.3976V121.955C49.3976 122.921 48.6103 123.708 47.6452 123.721H14.6801C13.715 123.721 12.9277 122.933 12.9277 121.968V77.9047C12.9277 76.9396 13.715 76.1523 14.6801 76.1523H23.442V49.8793C23.442 47.0221 25.7658 44.6983 28.623 44.6856H48.0896L48.1531 44.457C49.2579 40.838 53.3214 32.4189 67.3277 32.4189C81.3341 32.4189 85.2579 40.838 86.2992 44.457L86.3627 44.6856H106.185C109.042 44.6856 111.366 47.0221 111.379 49.8793V54.8697L145.766 62.311C146.528 62.5142 147.086 63.2126 147.074 64.0126V120.673C147.074 121.638 146.286 122.425 145.321 122.438C145.194 122.438 145.067 122.425 144.953 122.4L139.772 121.282C139.632 121.257 139.506 121.206 139.379 121.143L138.921 120.927V124.838C138.921 125.803 138.134 126.59 137.169 126.59L137.156 126.565ZM130.109 120.025C130.35 120.025 130.579 120.076 130.794 120.165L135.404 122.133V69.3078L128.953 66.5523L128.585 67.0475C128.839 67.365 128.979 67.7459 128.979 68.1523V120.368L129.423 120.178C129.639 120.089 129.867 120.038 130.109 120.038V120.025ZM110.871 111.873L125.461 121.536V69.092L110.871 59.4285V111.873ZM86.388 68.5078V121.295L107.353 111.695V58.9078L86.388 68.5078ZM16.4452 120.19H45.6515L45.8801 120.063V119.873V79.6443H16.4452V120.19ZM140.14 117.778C140.267 117.778 140.394 117.79 140.509 117.816L143.556 118.476V65.4221L129.944 62.4761L129.753 63.0729L137.842 66.5269C138.49 66.8062 138.909 67.4412 138.909 68.1396V118.171L139.366 117.955C139.607 117.841 139.874 117.778 140.14 117.778ZM74.6547 65.4221V118.476L81.1944 117.067C81.3214 117.041 81.4357 117.028 81.5627 117.028C81.8547 117.028 82.1468 117.105 82.4007 117.244L82.8706 117.498V67.3904C82.8706 66.7301 83.2388 66.1332 83.823 65.8285L91.023 62.5269L90.8198 61.9301L74.6547 65.4348V65.4221ZM28.623 48.1777C27.696 48.1777 26.9468 48.9269 26.9468 49.8539V76.1269H47.6325C48.5976 76.1269 49.3849 76.9142 49.3849 77.8793V101.486H71.1246V63.9999C71.1246 63.1745 71.7087 62.4507 72.5087 62.2729L107.848 54.6158V49.8285C107.848 48.9015 107.099 48.1523 106.172 48.1523H28.623V48.1777ZM67.3277 35.8983C56.8896 35.8983 53.1817 41.1174 51.8992 44.2285L51.7214 44.6729H82.7563L82.5912 44.2412C81.3722 41.1301 77.7658 35.8983 67.3404 35.8983H67.3277Z" fill="var(--fill-0, white)"/>
</g>
<defs>
<clipPath id="clip0_1609_6858">
<rect width="160" height="160" fill="white"/>
</clipPath>
</defs>
</svg>
