<svg xmlns="http://www.w3.org/2000/svg" width="101" height="102" viewBox="0 0 101 102" fill="none">
  <g clip-path="url(#clip0_677_6932)">
    <path d="M62.1903 101.769H38.6422C36.754 101.769 35.2222 100.237 35.2222 98.3487V88.0769C31.8615 86.6994 28.7028 84.8706 25.8172 82.6381L16.9109 87.78C16.1153 88.2431 15.2009 88.3619 14.3103 88.1244C13.4315 87.8869 12.6953 87.3169 12.2322 86.5331L0.464048 66.1319C-0.485952 64.4931 0.0840479 62.4031 1.7228 61.4531L10.629 56.3112C10.3915 54.5181 10.2609 52.7012 10.2609 50.8844C10.2609 49.0675 10.3797 47.2506 10.629 45.4575L1.7228 40.3156C0.0840479 39.3656 -0.474077 37.2756 0.464048 35.6369L12.2322 15.2475C12.6834 14.4519 13.4315 13.8938 14.3103 13.6562C15.189 13.4187 16.1153 13.5375 16.9109 14.0006L25.8172 19.1425C28.7028 16.91 31.8615 15.0813 35.2222 13.7037V3.42C35.2222 1.53188 36.754 0 38.6422 0H62.1903C64.0784 0 65.6103 1.53188 65.6103 3.42V13.6919C68.9709 15.0694 72.1297 16.8981 75.0153 19.1306L83.9215 13.9887C85.5603 13.0387 87.6503 13.6088 88.6003 15.2475L100.38 35.6488C101.318 37.2875 100.76 39.3775 99.1216 40.3275L90.2153 45.4694C90.4528 47.2625 90.5834 49.0913 90.5834 50.8963C90.5834 52.7013 90.4647 54.53 90.2153 56.3231L99.1216 61.465C100.76 62.415 101.318 64.505 100.38 66.1438L88.6003 86.545C87.6503 88.1837 85.5603 88.7419 83.9215 87.8038L75.0153 82.6619C72.1297 84.8944 68.9709 86.7231 65.6103 88.1006V98.3725C65.6103 100.261 64.0784 101.793 62.1903 101.793V101.769ZM39.5447 97.4462H61.2997V87.4594C61.2997 86.0344 62.1547 84.7875 63.4728 84.2769C66.8334 82.9587 69.9803 81.1419 72.8184 78.8737C73.9228 77.9831 75.4309 77.8763 76.6659 78.5888L85.3228 83.5881L96.2003 64.7544L87.5553 59.755C86.3322 59.0425 85.6672 57.6888 85.8809 56.2875C86.1541 54.5063 86.2847 52.6894 86.2847 50.8844C86.2847 49.0794 86.1541 47.2625 85.8809 45.4813C85.6672 44.08 86.3203 42.7262 87.5553 42.0138L96.2003 37.0144L85.3228 18.1806L76.6659 23.18C75.4309 23.8925 73.9228 23.7738 72.8184 22.895C69.9803 20.6269 66.8453 18.81 63.4728 17.4919C62.1547 16.9812 61.2997 15.7225 61.2997 14.3094V4.3225H39.5447V14.3094C39.5447 15.7344 38.6897 16.9812 37.3715 17.4919C33.999 18.81 30.864 20.6269 28.0259 22.895C26.9215 23.7856 25.4134 23.8925 24.1784 23.18L15.5215 18.1806L4.65592 37.0262L13.3009 42.0256C14.524 42.7381 15.189 44.0919 14.9753 45.4931C14.7022 47.2744 14.5715 49.0913 14.5715 50.8963C14.5715 52.7013 14.7022 54.5181 14.9753 56.2994C15.189 57.7006 14.5359 59.0544 13.3009 59.7669L4.65592 64.7663L15.5334 83.6L24.1903 78.6006C25.4253 77.8881 26.9334 78.0069 28.0378 78.8856C30.8759 81.1537 34.0109 82.9825 37.3834 84.2888C38.7015 84.7994 39.5565 86.0463 39.5565 87.4713V97.4581L39.5447 97.4462Z" fill="white"/>
    <path d="M50.4216 76.2494C46.5504 76.2494 42.8335 75.3944 39.366 73.72C38.2735 73.1856 37.1929 72.5681 36.1716 71.8675C29.7116 67.4738 25.686 60.4912 25.1279 52.7369C25.0804 52.1431 25.0566 51.5137 25.0566 50.8844C25.0566 50.255 25.0804 49.6256 25.1279 49.0319C25.686 41.2775 29.7116 34.3069 36.1716 29.9131C37.181 29.2244 38.2616 28.6069 39.3779 28.0606C42.8335 26.3862 46.5504 25.5312 50.4335 25.5312C54.3166 25.5312 58.0216 26.3862 61.4891 28.0606C62.6054 28.595 63.686 29.2244 64.6954 29.9131C71.1554 34.3069 75.181 41.2775 75.7391 49.0437C75.7866 49.6375 75.8104 50.2669 75.8104 50.8963C75.8104 51.5256 75.7866 52.155 75.7391 52.7487C75.181 60.515 71.1554 67.4856 64.6954 71.8794C63.6623 72.58 62.5935 73.1975 61.4891 73.7319C58.0216 75.4062 54.3048 76.2613 50.4335 76.2613L50.4216 76.2494ZM50.4216 29.8419C47.2035 29.8419 44.1279 30.5425 41.2541 31.9319C40.3279 32.3831 39.4373 32.8938 38.5941 33.4638C33.2266 37.1094 29.8898 42.9044 29.4266 49.3288C29.391 49.8275 29.3673 50.35 29.3673 50.8725C29.3673 51.395 29.391 51.9056 29.4266 52.4044C29.8898 58.8525 33.2266 64.6356 38.5941 68.2812C39.4491 68.8631 40.3398 69.3738 41.2541 69.8131C44.1279 71.2025 47.2035 71.9031 50.4216 71.9031C53.6398 71.9031 56.7154 71.2025 59.5891 69.8131C60.5035 69.3738 61.3941 68.8513 62.2491 68.2694C67.6048 64.6238 70.9416 58.8406 71.4166 52.4044C71.4523 51.9056 71.476 51.3831 71.476 50.8606C71.476 50.3381 71.4523 49.8156 71.4166 49.3288C70.9535 42.8806 67.6166 37.0975 62.2491 33.4519C61.406 32.8819 60.5154 32.3594 59.5891 31.92C56.7273 30.5306 53.6398 29.83 50.4216 29.83V29.8419Z" fill="#FDB515"/>
  </g>
  <defs>
    <clipPath id="clip0_677_6932">
      <rect width="100.831" height="101.769" fill="white"/>
    </clipPath>
  </defs>
</svg>