<svg xmlns="http://www.w3.org/2000/svg" width="100" height="100" viewBox="0 0 100 100" fill="none">
  <!-- Circle outline -->
  <circle cx="50" cy="50" r="48" stroke="white" stroke-width="4"/>

  <!-- K+ centered and scaled down slightly -->
  <g transform="translate(12 26) scale(1)">
    <path d="M-0.00051558 42.304C-0.00051558 41.5787 0.0634844 40.832 0.191484 40.064C0.319484 39.296 0.511484 38.5707 0.767484 37.888H5.11948V8.76801H0.767484C0.511484 8.08534 0.319484 7.36 0.191484 6.592C0.0634844 5.78134 -0.00051558 5.03467 -0.00051558 4.35201C-0.00051558 3.62667 0.0634844 2.90134 0.191484 2.176C0.319484 1.408 0.511484 0.682669 0.767484 3.8147e-06H20.3515C20.8208 1.408 21.0555 2.85867 21.0555 4.35201C21.0555 5.88801 20.8208 7.36001 20.3515 8.76801H17.2795V19.968L28.8635 8.76801H25.5355C25.2795 8.08534 25.0875 7.36 24.9595 6.592C24.8315 5.78134 24.7675 5.03467 24.7675 4.35201C24.7675 3.62667 24.8315 2.90134 24.9595 2.176C25.0875 1.408 25.2795 0.682669 25.5355 3.8147e-06H44.6075C45.0768 1.408 45.3115 2.85867 45.3115 4.35201C45.3115 5.88801 45.0768 7.36001 44.6075 8.76801H41.2795L31.2315 18.24L42.1115 37.888H46.2715C46.7408 39.296 46.9755 40.768 46.9755 42.304C46.9755 43.7973 46.7408 45.248 46.2715 46.656H31.9355L22.1435 26.816L17.2795 31.424V37.888H20.9275C21.1408 38.5707 21.3115 39.296 21.4395 40.064C21.6102 40.832 21.6955 41.5787 21.6955 42.304C21.6955 42.9867 21.6102 43.712 21.4395 44.48C21.3115 45.248 21.1408 45.9733 20.9275 46.656H0.767484C0.511484 45.9733 0.319484 45.248 0.191484 44.48C0.0634844 43.712 -0.00051558 42.9867 -0.00051558 42.304Z" fill="#FDB515"/>
    <path d="M55.9017 15.9408H49.0281V9.6816H55.9017V2.5008H62.1993V9.6816H69.0729V15.9408H62.1993V23.1216H55.9017V15.9408Z" fill="white"/>
  </g>
</svg>
