<svg width="89" height="62" viewBox="0 0 89 62" fill="none" xmlns="http://www.w3.org/2000/svg">
<g clip-path="url(#clip0_677_6890)">
<path d="M7.88363 7.56396H26.2977C27.3451 7.56396 28.2138 8.42357 28.2138 9.47779V50.7062C28.2138 51.7523 27.3532 52.5876 26.2977 52.5876H7.88363C6.82815 52.5876 6 51.7523 6 50.7062V9.47779C6 8.42357 6.83626 7.56396 7.88363 7.56396ZM24.406 11.3592H9.79161V48.7923H24.406V11.3592Z" fill="white"/>
<path d="M36.5282 -0.407471H54.9422C55.9977 -0.407471 56.8583 0.45213 56.8583 1.50636V50.7063C56.8583 51.7524 55.9977 52.5877 54.9422 52.5877H36.5282C35.4808 52.5877 34.6445 51.7524 34.6445 50.7063V1.50636C34.6445 0.45213 35.4808 -0.407471 36.5282 -0.407471ZM53.0586 3.41207H38.4443V48.7844H53.0586V3.41207Z" fill="white"/>
<path d="M65.0575 7.56396H83.4715C84.5189 7.56396 85.3876 8.42357 85.3876 9.47779V50.7062C85.3876 51.7523 84.527 52.5876 83.4715 52.5876H65.0575C64.002 52.5876 63.1738 51.7523 63.1738 50.7062V9.47779C63.1738 8.42357 64.0101 7.56396 65.0575 7.56396ZM81.5798 11.3592H66.9654V48.7923H81.5798V11.3592Z" fill="white"/>
<line x1="2" y1="60" x2="87" y2="60" stroke="#FDB515" stroke-width="4" stroke-linecap="round"/>
</g>
<defs>
<clipPath id="clip0_677_6890">
<rect width="89" height="62" fill="white"/>
</clipPath>
</defs>
</svg>
