<svg preserveAspectRatio="none" width="100%" height="100%" overflow="visible" style="display: block;" viewBox="0 0 4 3" fill="none" xmlns="http://www.w3.org/2000/svg">
<path id="Vector" d="M3.49566 1.4561C3.43141 1.4192 3.36716 1.39152 3.29374 1.3823C2.94495 1.25316 2.23821 0.985651 1.96285 0.847285C1.62324 0.681245 0.687035 0.109331 0.604428 0.0539848C0.411679 -0.0567081 0.163858 0.00786265 0.0537161 0.201575C-0.0564262 0.395288 0.0078242 0.644347 0.200573 0.75504C0.200573 0.75504 1.23775 1.31773 1.55899 1.53912C1.81599 1.71438 2.40342 2.20327 2.69713 2.43388C2.74302 2.48001 2.7981 2.52613 2.85317 2.56302C3.15606 2.73829 3.55074 2.63682 3.72513 2.32319C3.89952 2.01878 3.79856 1.62213 3.48649 1.44687L3.49566 1.4561Z" fill="var(--fill-0, #1265A5)"/>
</svg>
