<svg preserveAspectRatio="none" width="100%" height="100%" overflow="visible" style="display: block;" viewBox="0 0 3 6" fill="none" xmlns="http://www.w3.org/2000/svg">
<path id="Vector" d="M0 5.3365V0H1.12284C1.36747 0 1.58075 0.0374932 1.75011 0.112479C1.92575 0.187465 2.06375 0.287446 2.17666 0.412423C2.28957 0.537399 2.36485 0.681123 2.41503 0.843592C2.46521 1.00606 2.48403 1.17478 2.48403 1.34975V1.54346C2.48403 1.68718 2.47148 1.81216 2.45266 1.91214C2.42757 2.01212 2.39621 2.09961 2.3523 2.17459C2.26448 2.31207 2.13903 2.43704 1.96339 2.53703C2.1453 2.62451 2.27703 2.74949 2.36485 2.91196C2.45267 3.07442 2.4903 3.29938 2.4903 3.58683V3.88677C2.4903 4.35543 2.37739 4.71787 2.14529 4.96782C1.91947 5.21777 1.54938 5.34275 1.04756 5.34275H0V5.3365ZM0.765282 0.718615V2.18709H1.11029C1.36747 2.18709 1.53683 2.1246 1.62465 1.99338C1.71247 1.8684 1.75638 1.68094 1.75638 1.43723C1.75638 1.19353 1.7062 1.01856 1.61211 0.899831C1.51175 0.781104 1.33611 0.718615 1.07892 0.718615H0.765282ZM0.765282 2.86196V4.57414H1.09774C1.25456 4.57414 1.37374 4.54915 1.46156 4.50541C1.54938 4.46166 1.61839 4.39918 1.6623 4.31794C1.70621 4.23671 1.73756 4.14298 1.74384 4.0305C1.75638 3.91802 1.75638 3.79929 1.75638 3.66806C1.75638 3.53684 1.75011 3.41811 1.73129 3.31813C1.71874 3.21815 1.68738 3.13066 1.64347 3.06193C1.59329 2.99319 1.52429 2.9432 1.44274 2.90571C1.35493 2.87446 1.24201 2.85572 1.10401 2.85572H0.765282V2.86196Z" fill="var(--fill-0, #5676A1)"/>
</svg>
