<svg preserveAspectRatio="none" width="100%" height="100%" overflow="visible" style="display: block;" viewBox="0 0 3 6" fill="none" xmlns="http://www.w3.org/2000/svg">
<path id="Vector" d="M0 5.3365V0H1.13537C1.57447 0 1.9132 0.118728 2.13902 0.362432C2.36484 0.599888 2.48403 0.943574 2.48403 1.38099V3.88052C2.48403 4.38043 2.36485 4.74911 2.12021 4.98657C1.87557 5.22402 1.52429 5.34275 1.07265 5.34275H0.00627892L0 5.3365ZM0.765281 0.718615V4.61789H1.11656C1.32983 4.61789 1.48666 4.56165 1.57448 4.45542C1.6623 4.34919 1.71248 4.18047 1.71248 3.94926V1.37474C1.71248 1.16228 1.66856 0.999813 1.58702 0.887334C1.4992 0.774855 1.34866 0.712367 1.12284 0.712367H0.77156L0.765281 0.718615Z" fill="var(--fill-0, #5676A1)"/>
</svg>
