<svg preserveAspectRatio="none" width="100%" height="100%" overflow="visible" style="display: block;" viewBox="0 0 64 64" fill="none" xmlns="http://www.w3.org/2000/svg">
<g id="Group 107284">
<circle id="Ellipse 508" cx="32" cy="32" r="32" fill="var(--fill-0, #FDB515)"/>
<path id="Arrow 1" d="M30.5 45L30.5 46.5L33.5 46.5L33.5 45L32 45L30.5 45ZM33.0607 17.9393C32.4749 17.3536 31.5251 17.3536 30.9393 17.9393L21.3934 27.4853C20.8076 28.0711 20.8076 29.0208 21.3934 29.6066C21.9792 30.1924 22.9289 30.1924 23.5147 29.6066L32 21.1213L40.4853 29.6066C41.0711 30.1924 42.0208 30.1924 42.6066 29.6066C43.1924 29.0208 43.1924 28.0711 42.6066 27.4853L33.0607 17.9393ZM32 45L33.5 45L33.5 19L32 19L30.5 19L30.5 45L32 45Z" fill="var(--stroke-0, white)"/>
</g>
</svg>
