<svg preserveAspectRatio="none" width="100%" height="100%" overflow="visible" style="display: block;" viewBox="0 0 2 3" fill="none" xmlns="http://www.w3.org/2000/svg">
<path id="Vector" d="M0.197515 0.0690174C0.0139442 0.17971 -0.0503055 0.410321 0.0414797 0.594809C0.0414797 0.594809 0.0414797 0.604034 0.0414797 0.613259C0.0414797 0.622483 0.0598371 0.631706 0.0598371 0.640931C0.215872 0.899214 0.702333 1.90467 0.766582 2.04304C0.895082 2.27365 1.19797 2.35667 1.42744 2.21831C1.6569 2.07994 1.73951 1.78476 1.60183 1.55415C1.60183 1.55415 1.59265 1.54492 1.58347 1.5357C1.58347 1.5357 1.57429 1.52647 1.56511 1.51725C1.55593 1.4988 1.54676 1.48958 1.53758 1.47113C1.36319 1.23129 0.867546 0.456443 0.739047 0.225833C0.739047 0.225833 0.739047 0.207384 0.729868 0.198159C0.729868 0.198159 0.729868 0.198159 0.729868 0.188935C0.729868 0.188935 0.729868 0.188935 0.729868 0.17971C0.610548 0.00444642 0.381085 -0.0508995 0.197515 0.050569V0.0690174Z" fill="var(--fill-0, #1265A5)"/>
</svg>
