<svg preserveAspectRatio="none" width="100%" height="100%" overflow="visible" style="display: block;" viewBox="0 0 2 5" fill="none" xmlns="http://www.w3.org/2000/svg">
<path id="Vector" d="M1.25746 3.41303C1.19321 3.04406 1.07389 2.29688 1.05553 1.99247C1.02799 1.60505 1.05553 0.479669 1.05553 0.405874C1.05553 0.184488 0.87196 0 0.651675 0C0.431391 0 0.24782 0.184488 0.24782 0.405874C0.24782 0.405874 0.275355 1.5866 0.24782 1.98325C0.229463 2.28765 0.100964 3.05328 0.0367141 3.42226C0.018357 3.48683 0 3.56062 0 3.62519C0 3.98495 0.284534 4.2709 0.642497 4.2709C1.00046 4.2709 1.28499 3.98495 1.28499 3.62519C1.28499 3.5514 1.27581 3.4776 1.24828 3.41303H1.25746Z" fill="var(--fill-0, #1265A5)"/>
</svg>
