<svg preserveAspectRatio="none" width="100%" height="100%" overflow="visible" style="display: block;" viewBox="0 0 5 6" fill="none" xmlns="http://www.w3.org/2000/svg">
<path id="Vector" d="M4.16705 5.67301C4.01102 5.67301 3.8917 5.61766 3.79991 5.49775L0.945387 1.87255V5.19334C0.945387 5.46085 0.734281 5.66379 0.468103 5.66379C0.201926 5.66379 0 5.45162 0 5.19334V0.47967C0 0.221386 0.19275 0 0.495641 0C0.624141 0 0.770995 0.073794 0.844423 0.175262L3.69895 3.80045V0.47967C3.69895 0.221386 3.8917 0 4.16705 0C4.44241 0 4.64434 0.221386 4.64434 0.47967V5.19334C4.64434 5.45162 4.44241 5.66379 4.16705 5.66379V5.67301Z" fill="var(--fill-0, white)"/>
</svg>
