<svg preserveAspectRatio="none" width="100%" height="100%" overflow="visible" style="display: block;" viewBox="0 0 4 4" fill="none" xmlns="http://www.w3.org/2000/svg">
<path id="Vector" d="M3.06563 3.40381C3.06563 3.57907 2.93713 3.74511 2.72602 3.74511C2.57917 3.74511 2.48738 3.68054 2.43231 3.56062L1.78981 2.22308H0.679211V3.40381C0.679211 3.5883 0.532354 3.74511 0.339605 3.74511C0.146855 3.74511 0 3.59752 0 3.40381V0.341304C0 0.156816 0.146855 0 0.339605 0H1.76228C2.68013 0 3.07481 0.451997 3.07481 1.10693C3.07481 1.54048 2.89124 1.90945 2.46902 2.09394L3.03809 3.25622C3.03809 3.25622 3.07481 3.34846 3.07481 3.40381H3.06563ZM1.85406 0.618036H0.679211V1.63272H1.85406C2.2212 1.63272 2.38642 1.35599 2.38642 1.10693C2.38642 0.857871 2.2212 0.608811 1.85406 0.608811V0.618036Z" fill="var(--fill-0, white)"/>
</svg>
