<svg preserveAspectRatio="none" width="100%" height="100%" overflow="visible" style="display: block;" viewBox="0 0 4 3" fill="none" xmlns="http://www.w3.org/2000/svg">
<path id="Vector" d="M3.60955 1.90263C3.60955 1.90263 2.57238 1.33994 2.25113 1.11856C1.99413 0.943294 1.40671 0.463625 1.12217 0.22379C1.07628 0.168444 1.02121 0.122321 0.956958 0.0854235C0.654067 -0.0898403 0.259391 0.0116284 0.0849987 0.325258C-0.0893933 0.629664 0.0115703 1.02631 0.32364 1.20158C0.38789 1.23847 0.452139 1.26615 0.525567 1.27537C0.874351 1.40451 1.5811 1.67202 1.85645 1.81039C2.21442 1.98565 3.22405 2.60369 3.22405 2.60369C3.4168 2.71438 3.66462 2.64981 3.77477 2.4561C3.88491 2.26238 3.82066 2.01333 3.62791 1.90263H3.60955Z" fill="var(--fill-0, #1265A5)"/>
</svg>
