<svg preserveAspectRatio="none" width="100%" height="100%" overflow="visible" style="display: block;" viewBox="0 0 3 6" fill="none" xmlns="http://www.w3.org/2000/svg">
<path id="Vector" d="M0 5.3365V0H1.23574C2.13902 0 2.59066 0.524902 2.59066 1.56846C2.59066 1.8809 2.54048 2.1496 2.44639 2.36831C2.34602 2.58701 2.17666 2.76823 1.93202 2.89946L2.76003 5.3365H1.94456L1.22947 3.05568H0.771555V5.3365H0.00627413H0ZM0.765281 0.718615V2.3808H1.20437C1.34238 2.3808 1.44902 2.36206 1.53056 2.32456C1.61211 2.28707 1.67483 2.23083 1.71874 2.16209C1.75638 2.09336 1.78775 2.00587 1.80029 1.90589C1.81284 1.80591 1.82538 1.68718 1.82538 1.54971C1.82538 1.41224 1.81911 1.29351 1.80029 1.19353C1.78775 1.09355 1.75638 0.999813 1.71247 0.924827C1.61838 0.787352 1.43647 0.712367 1.17301 0.712367H0.771555L0.765281 0.718615Z" fill="var(--fill-0, #5676A1)"/>
</svg>
