<svg preserveAspectRatio="none" width="100%" height="100%" overflow="visible" style="display: block;" viewBox="0 0 6 6" fill="none" xmlns="http://www.w3.org/2000/svg">
<path id="Vector" d="M3.81827 4.3816H1.3676L0.899496 5.39628C0.807711 5.56232 0.68839 5.67301 0.477284 5.67301C0.183571 5.67301 0 5.4424 0 5.20257C0 5.138 0.0183572 5.07342 0.0458928 4.99963L2.16613 0.267509C2.23956 0.101469 2.37724 0 2.59752 0C2.81781 0 2.95549 0.092245 3.02891 0.267509L5.14915 4.99963C5.18587 5.0642 5.19505 5.12877 5.19505 5.20257C5.19505 5.4424 5.01148 5.67301 4.71776 5.67301C4.50666 5.67301 4.38734 5.57154 4.29555 5.39628L3.82745 4.3816H3.81827ZM2.59752 1.38366L1.73474 3.49605H3.45113L2.58834 1.38366H2.59752Z" fill="var(--fill-0, white)"/>
</svg>
