<svg preserveAspectRatio="none" width="100%" height="100%" overflow="visible" style="display: block;" viewBox="0 0 299 105" fill="none" xmlns="http://www.w3.org/2000/svg">
<g id="Lokelma_RGB 1" clip-path="url(#clip0_1609_6767)">
<path id="Vector" d="M18.9901 0L0.265625 10.7507L18.9901 21.7459V0Z" fill="var(--fill-0, #F2BAC1)"/>
<path id="Vector_2" d="M20.388 0L20.377 21.7459L39.1054 10.7507L20.388 0Z" fill="var(--fill-0, #F2BAC1)"/>
<path id="Vector_3" d="M39.3659 12.3784L20.6388 23.3626L39.3659 34.3401V12.3784Z" fill="var(--fill-0, #EA8596)"/>
<path id="Vector_4" d="M0 34.3387L18.7327 23.364L0 12.3784V34.3387Z" fill="var(--fill-0, #EA8596)"/>
<path id="Vector_5" d="M20.3789 48.3076L20.39 70.0564L39.1036 59.2932L20.3789 48.3076Z" fill="var(--fill-0, #EA8596)"/>
<path id="Vector_6" d="M0.265625 59.2943L18.9901 70.0563V48.3047L0.265625 59.2943Z" fill="var(--fill-0, #EA8596)"/>
<path id="Vector_7" d="M39.3659 35.7066L20.6388 46.6893L39.3659 57.6669V35.7066Z" fill="var(--fill-0, #F2BAC1)"/>
<path id="Vector_8" d="M0 57.6695L18.7327 46.6921L0 35.708V57.6695Z" fill="var(--fill-0, #F2BAC1)"/>
<path id="Vector_9" d="M18.9901 0L0.265625 10.7507L18.9901 21.7459V0Z" fill="var(--fill-0, #73C3B7)"/>
<path id="Vector_10" d="M20.388 0L20.377 21.7459L39.1054 10.7507L20.388 0Z" fill="var(--fill-0, #73C3B7)"/>
<path id="Vector_11" d="M39.3659 12.3784L20.6388 23.3626L39.3659 34.3401V12.3784Z" fill="var(--fill-0, #00927C)"/>
<path id="Vector_12" d="M0 34.3387L18.7327 23.364L0 12.3784V34.3387Z" fill="var(--fill-0, #00927C)"/>
<path id="Vector_13" d="M20.3789 48.3076L20.39 70.0564L39.1036 59.2932L20.3789 48.3076Z" fill="var(--fill-0, #00927C)"/>
<path id="Vector_14" d="M0.265625 59.2943L18.9901 70.0563V48.3047L0.265625 59.2943Z" fill="var(--fill-0, #00927C)"/>
<path id="Vector_15" d="M39.3659 35.7066L20.6388 46.6893L39.3659 57.6669V35.7066Z" fill="var(--fill-0, #73C3B7)"/>
<path id="Vector_16" d="M0 57.6695L18.7327 46.6921L0 35.708V57.6695Z" fill="var(--fill-0, #73C3B7)"/>
<path id="Vector_17" d="M215.826 51.5314H218.901V24.9945L232.707 41.2946H232.906L245.854 24.9945V51.5314H248.93V17.0422H248.682L232.906 36.7197L216.026 17.0422H215.826V51.5314ZM190.925 51.5314H209.826V48.6503H194.148V17.7387H190.925V51.5314ZM163.049 51.5314H184.081V48.6503H166.272V38.892H181.55V36.0591H166.272V20.6227H183.386V17.7389H163.05L163.049 51.5314ZM137.108 37.2171V17.7387H133.884V51.5314H137.108V41.4937L141.423 36.1252L153.627 51.5314H157.495L143.458 33.7928L156.053 17.7387H152.434L137.108 37.2171ZM110.171 48.9958C102.139 48.9958 96.2342 42.8339 96.2342 34.6359C96.2342 26.4378 102.139 20.2743 110.171 20.2743C118.204 20.2743 124.111 26.4345 124.111 34.6359C124.111 42.8372 118.211 48.9958 110.171 48.9958ZM110.171 51.9279C119.747 51.9279 127.483 44.6236 127.483 34.6356C127.483 24.6476 119.748 17.3392 110.171 17.3392C100.595 17.3392 92.8621 24.6462 92.8621 34.6356C92.8621 44.6251 100.598 51.9279 110.171 51.9279ZM72.1776 51.5314H91.0774V48.6503H75.4021V17.7387H72.1776V51.5314Z" fill="var(--fill-0, #004957)"/>
<g id="Group">
<path id="Vector_18" d="M76.5121 69.4496C76.5121 67.9103 76.1451 67.0743 74.9039 67.0743C74.355 67.0743 73.1342 67.2318 73.1342 68.9286C73.1342 70.3547 74.4776 70.6254 75.8196 71.1245C77.1422 71.6218 78.4841 72.1428 78.4841 74.5403C78.4841 77.0981 77 78.3417 74.9658 78.3417C71.2627 78.3417 71.2227 75.2879 71.2227 74.0427H72.9316C72.9316 75.5128 73.2971 76.8491 74.966 76.8491C75.515 76.8491 76.7769 76.5548 76.7769 74.8344C76.7769 73.2052 75.4335 72.8666 74.1109 72.3678C72.7882 71.8704 71.4256 71.4405 71.4256 68.9284C71.4256 66.6663 73.013 65.5803 74.9039 65.5803C78.0788 65.5803 78.2003 68.0233 78.221 69.4493H76.5121V69.4496Z" fill="var(--fill-0, #939598)"/>
<path id="Vector_19" d="M83.5068 65.5805C86.6599 65.5805 87.4322 68.5444 87.4322 71.9605C87.4322 75.3765 86.6391 78.3419 83.5068 78.3419C80.3526 78.3419 79.5801 75.3779 79.5801 71.9605C79.5801 68.543 80.3731 65.5805 83.5068 65.5805ZM85.6418 71.9605C85.6418 69.3364 85.297 67.0742 83.4654 67.0742C81.7358 67.0742 81.3704 69.3364 81.3704 71.9605C81.3704 74.5846 81.7167 76.8493 83.4654 76.8493C85.2762 76.8493 85.6418 74.5858 85.6418 71.9605Z" fill="var(--fill-0, #939598)"/>
<path id="Vector_20" d="M96.3211 78.0254H94.6936V76.5316H94.6522C94.4288 77.4368 93.4729 78.3419 92.2936 78.3419C89.709 78.3419 88.7324 75.7855 88.7324 71.9605C88.7324 69.4262 89.0994 65.5805 92.1707 65.5805C93.1471 65.5805 94.1845 66.2368 94.5719 67.2773H94.6119V61.8687H96.3209V78.0252L96.3211 78.0254ZM92.5172 76.7125C94.4095 76.7125 94.7143 74.7214 94.7143 71.9605C94.7143 69.6085 94.3474 67.2096 92.5172 67.2096C90.9298 67.2096 90.5228 69.064 90.5228 71.9605C90.5228 74.857 90.9298 76.7125 92.5172 76.7125Z" fill="var(--fill-0, #939598)"/>
<path id="Vector_21" d="M98.6562 61.869H100.365V64.0412H98.6562V61.869ZM98.6562 65.897H100.365V78.0254H98.6562V65.897Z" fill="var(--fill-0, #939598)"/>
<path id="Vector_22" d="M109.885 78.0254H108.257V76.5993H108.217C107.769 77.7089 106.63 78.3419 105.572 78.3419C102.703 78.3419 102.703 75.9208 102.703 74.495V65.8972H104.412V74.2698C104.412 75.1971 104.474 76.7128 106.019 76.7128C106.935 76.7128 108.176 76.0343 108.176 74.2698V65.8972H109.885V78.0256V78.0254Z" fill="var(--fill-0, #939598)"/>
<path id="Vector_23" d="M112.284 65.897H113.911V67.3231H113.953C114.399 66.2135 115.539 65.5805 116.597 65.5805C117.858 65.5805 118.612 66.1236 118.956 67.5039C119.445 66.4399 120.421 65.5805 121.541 65.5805C124.408 65.5805 124.408 68.0016 124.408 69.4262V78.0254H122.699V69.6529C122.699 68.7256 122.639 67.2099 121.235 67.2099C120.442 67.2099 119.2 67.753 119.2 69.6529V78.0254H117.491V69.6529C117.491 68.7256 117.431 67.2099 116.026 67.2099C115.233 67.2099 113.992 67.753 113.992 69.6529V78.0254H112.283V65.897H112.284Z" fill="var(--fill-0, #939598)"/>
<path id="Vector_24" d="M131.359 65.897H137.93V67.4806L133.048 76.3963H137.89V78.0254H131.115V76.5316L136.06 67.5261H131.359V65.897Z" fill="var(--fill-0, #939598)"/>
<path id="Vector_25" d="M139.697 61.869H141.406V64.0412H139.697V61.869ZM139.697 65.897H141.406V78.0254H139.697V65.897Z" fill="var(--fill-0, #939598)"/>
<path id="Vector_26" d="M143.744 65.897H145.453V67.7072H145.495C145.983 66.5533 146.634 65.5805 147.854 65.5805C148.199 65.5805 148.445 65.626 148.607 65.7158V67.5716C148.445 67.548 148.241 67.4803 147.692 67.4803C146.836 67.4803 145.453 68.34 145.453 70.3547V78.0252H143.744V65.8967L143.744 65.897Z" fill="var(--fill-0, #939598)"/>
<path id="Vector_27" d="M154.952 69.5852C154.952 68.4093 154.526 67.0745 153.224 67.0745C152.166 67.0745 151.087 67.6617 151.087 72.0975C151.087 73.6811 151.108 76.8495 153.161 76.8495C154.626 76.8495 154.952 75.1291 154.952 73.8165H156.662C156.662 75.7399 155.807 78.3419 153.081 78.3419C150.415 78.3419 149.297 76.2831 149.297 72.1194C149.297 69.0878 149.827 65.5805 153.182 65.5805C156.153 65.5805 156.662 68.1824 156.662 69.5849H154.952L154.952 69.5852Z" fill="var(--fill-0, #939598)"/>
<path id="Vector_28" d="M161.825 65.5805C164.978 65.5805 165.751 68.5444 165.751 71.9605C165.751 75.3765 164.957 78.3419 161.825 78.3419C158.671 78.3419 157.898 75.3779 157.898 71.9605C157.898 68.543 158.691 65.5805 161.825 65.5805ZM163.96 71.9605C163.96 69.3364 163.616 67.0742 161.784 67.0742C160.054 67.0742 159.689 69.3364 159.689 71.9605C159.689 74.5846 160.035 76.8493 161.784 76.8493C163.595 76.8493 163.96 74.5858 163.96 71.9605Z" fill="var(--fill-0, #939598)"/>
<path id="Vector_29" d="M167.457 65.897H169.084V67.3231H169.126C169.573 66.2135 170.712 65.5805 171.77 65.5805C174.639 65.5805 174.639 68.0016 174.639 69.4262V78.0254H172.93V69.6529C172.93 68.7256 172.869 67.2099 171.323 67.2099C170.407 67.2099 169.166 67.8884 169.166 69.6529V78.0254H167.457V65.897Z" fill="var(--fill-0, #939598)"/>
<path id="Vector_30" d="M176.975 61.869H178.684V64.0412H176.975V61.869ZM176.975 65.897H178.684V78.0254H176.975V65.897Z" fill="var(--fill-0, #939598)"/>
<path id="Vector_31" d="M188.203 78.0254H186.576V76.5993H186.536C186.088 77.7089 184.948 78.3419 183.891 78.3419C181.022 78.3419 181.022 75.9208 181.022 74.495V65.8972H182.731V74.2698C182.731 75.1971 182.793 76.7128 184.337 76.7128C185.253 76.7128 186.494 76.0343 186.494 74.2698V65.8972H188.203V78.0256V78.0254Z" fill="var(--fill-0, #939598)"/>
<path id="Vector_32" d="M190.6 65.897H192.228V67.3231H192.269C192.716 66.2135 193.855 65.5805 194.913 65.5805C196.175 65.5805 196.927 66.1236 197.273 67.5039C197.761 66.4399 198.738 65.5805 199.856 65.5805C202.725 65.5805 202.725 68.0016 202.725 69.4262V78.0254H201.016V69.6529C201.016 68.7256 200.955 67.2099 199.551 67.2099C198.758 67.2099 197.517 67.753 197.517 69.6529V78.0254H195.808V69.6529C195.808 68.7256 195.747 67.2099 194.343 67.2099C193.55 67.2099 192.309 67.753 192.309 69.6529V78.0254H190.6V65.897H190.6Z" fill="var(--fill-0, #939598)"/>
<path id="Vector_33" d="M215.192 69.5852C215.192 68.4093 214.764 67.0745 213.462 67.0745C212.404 67.0745 211.326 67.6617 211.326 72.0975C211.326 73.6811 211.346 76.8495 213.401 76.8495C214.866 76.8495 215.191 75.1291 215.191 73.8165H216.899C216.899 75.7399 216.045 78.3419 213.318 78.3419C210.654 78.3419 209.535 76.2831 209.535 72.1194C209.535 69.0878 210.063 65.5805 213.42 65.5805C216.391 65.5805 216.899 68.1824 216.899 69.5849H215.191L215.192 69.5852Z" fill="var(--fill-0, #939598)"/>
<path id="Vector_34" d="M217.346 65.897H219.216L221.373 75.6265H221.414L223.326 65.897H225.198L222.045 78.8393C221.638 80.5141 221.189 82.0079 219.136 82.0079C218.464 82.0079 218.179 81.9624 217.895 81.9402V80.4465C218.139 80.492 218.464 80.5142 218.89 80.5142C219.685 80.5142 220.03 79.9946 220.234 79.3383L220.559 78.2742L217.346 65.8972V65.897Z" fill="var(--fill-0, #939598)"/>
<path id="Vector_35" d="M231.705 69.5852C231.705 68.4093 231.278 67.0745 229.976 67.0745C228.918 67.0745 227.839 67.6617 227.839 72.0975C227.839 73.6811 227.86 76.8495 229.915 76.8495C231.38 76.8495 231.705 75.1291 231.705 73.8165H233.413C233.413 75.7399 232.559 78.3419 229.832 78.3419C227.168 78.3419 226.049 76.2831 226.049 72.1194C226.049 69.0878 226.577 65.5805 229.934 65.5805C232.905 65.5805 233.413 68.1824 233.413 69.5849H231.705L231.705 69.5852Z" fill="var(--fill-0, #939598)"/>
<path id="Vector_36" d="M234.877 61.869H236.586V78.0254H234.877V61.869Z" fill="var(--fill-0, #939598)"/>
<path id="Vector_37" d="M242.32 65.5805C245.474 65.5805 246.247 68.5444 246.247 71.9605C246.247 75.3765 245.454 78.3419 242.32 78.3419C239.167 78.3419 238.395 75.3779 238.395 71.9605C238.395 68.543 239.188 65.5805 242.32 65.5805ZM244.456 71.9605C244.456 69.3364 244.11 67.0743 242.28 67.0743C240.55 67.0743 240.185 69.3364 240.185 71.9605C240.185 74.5846 240.53 76.8493 242.28 76.8493C244.091 76.8493 244.456 74.5858 244.456 71.9605Z" fill="var(--fill-0, #939598)"/>
<path id="Vector_38" d="M252.631 69.4496C252.631 67.9103 252.264 67.0743 251.023 67.0743C250.474 67.0743 249.253 67.2318 249.253 68.9286C249.253 70.3547 250.597 70.6254 251.939 71.1245C253.261 71.6218 254.603 72.1428 254.603 74.5403C254.603 77.0981 253.119 78.3417 251.085 78.3417C247.382 78.3417 247.342 75.2879 247.342 74.0427H249.051C249.051 75.5128 249.416 76.8491 251.085 76.8491C251.634 76.8491 252.896 76.5548 252.896 74.8344C252.896 73.2052 251.553 72.8666 250.23 72.3678C248.907 71.8704 247.545 71.4405 247.545 68.9284C247.545 66.6663 249.132 65.5803 251.023 65.5803C254.198 65.5803 254.319 68.0233 254.34 69.4493H252.631V69.4496Z" fill="var(--fill-0, #939598)"/>
<path id="Vector_39" d="M256.332 61.869H258.041V64.0412H256.332V61.869ZM256.332 65.897H258.041V78.0254H256.332V65.897Z" fill="var(--fill-0, #939598)"/>
<path id="Vector_40" d="M260.48 61.869H262.189V78.0254H260.48V61.869Z" fill="var(--fill-0, #939598)"/>
<path id="Vector_41" d="M264.629 61.869H266.338V64.0412H264.629V61.869ZM264.629 65.897H266.338V78.0254H264.629V65.897Z" fill="var(--fill-0, #939598)"/>
<path id="Vector_42" d="M273.862 69.5852C273.862 68.4093 273.436 67.0745 272.134 67.0745C271.076 67.0745 269.997 67.6617 269.997 72.0975C269.997 73.6811 270.018 76.8495 272.072 76.8495C273.536 76.8495 273.862 75.1291 273.862 73.8165H275.572C275.572 75.7399 274.717 78.3419 271.992 78.3419C269.326 78.3419 268.207 76.2831 268.207 72.1194C268.207 69.0878 268.737 65.5805 272.092 65.5805C275.063 65.5805 275.572 68.1824 275.572 69.5849H273.862L273.862 69.5852Z" fill="var(--fill-0, #939598)"/>
<path id="Vector_43" d="M277.074 69.563C277.074 66.8021 278.133 65.5805 280.737 65.5805C284.053 65.5805 284.053 67.7983 284.053 69.064V75.8307C284.053 76.3281 284.053 76.8036 284.581 76.8036C284.806 76.8036 284.906 76.758 284.988 76.6904V78.0473C284.866 78.0709 284.418 78.1605 283.992 78.1605C283.341 78.1605 282.527 78.1605 282.445 76.5991H282.405C281.856 77.6851 280.798 78.3417 279.78 78.3417C277.746 78.3417 276.811 76.9847 276.811 74.8124C276.811 73.1156 277.462 71.9381 278.864 71.4629L281.164 70.6945C282.405 70.2634 282.405 69.8793 282.405 68.8609C282.405 67.7292 281.794 67.0743 280.655 67.0743C278.784 67.0743 278.784 69.0199 278.784 69.4496V69.5628H277.074L277.074 69.563ZM282.344 71.4188C281.713 72.165 280.207 72.3225 279.435 72.8435C278.885 73.229 278.601 73.7031 278.601 74.7669C278.601 75.9885 278.987 76.8493 280.147 76.8493C281.265 76.8493 282.344 75.7852 282.344 74.5403V71.4188Z" fill="var(--fill-0, #939598)"/>
<path id="Vector_44" d="M287.08 62.3677H288.789V65.897H290.681V67.3908H288.789V75.1747C288.789 76.1475 289.012 76.5316 289.907 76.5316C290.274 76.5316 290.477 76.4873 290.66 76.464V78.0254C290.437 78.0709 289.988 78.1608 289.277 78.1608C287.507 78.1608 287.08 77.3469 287.08 75.7633V67.3908H285.492V65.897H287.08V62.3677Z" fill="var(--fill-0, #939598)"/>
<path id="Vector_45" d="M293.263 72.1871C293.263 74.0429 293.263 76.8495 295.358 76.8495C296.986 76.8495 297.209 74.9483 297.209 74.0431H298.918C298.918 75.3324 298.227 78.3421 295.256 78.3421C292.591 78.3421 291.473 76.2833 291.473 72.1197C291.473 69.088 292.001 65.5807 295.358 65.5807C298.695 65.5807 298.999 68.8157 298.999 71.419V72.1874H293.263V72.1871ZM297.209 70.6948V70.0384C297.209 68.68 296.823 67.0745 295.318 67.0745C293.528 67.0745 293.324 69.5175 293.324 70.2417V70.695H297.209V70.6948Z" fill="var(--fill-0, #939598)"/>
<path id="Vector_46" d="M71.8323 88.537H73.4598V90.0307H73.5012C73.7246 89.1256 74.6805 88.2205 75.861 88.2205C78.4444 88.2205 79.4208 90.7769 79.4208 94.3753C79.4208 97.1347 78.6885 100.982 75.861 100.982C74.8846 100.982 73.9687 100.326 73.5824 99.2851H73.541V104.648H71.8321V88.5372L71.8323 88.537ZM75.6376 99.3525C77.2236 99.3525 77.6306 97.4967 77.6306 94.3753C77.6306 91.7042 77.2236 89.8499 75.6376 89.8499C73.7453 89.8499 73.4391 91.841 73.4391 94.6007C73.4391 96.9553 73.806 99.3527 75.6376 99.3527V99.3525Z" fill="var(--fill-0, #939598)"/>
<path id="Vector_47" d="M84.6475 88.2205C87.8005 88.2205 88.5728 91.1844 88.5728 94.6005C88.5728 98.0165 87.7798 100.982 84.6475 100.982C81.4932 100.982 80.7207 98.0179 80.7207 94.6005C80.7207 91.183 81.5137 88.2205 84.6475 88.2205ZM86.7827 94.6005C86.7827 91.9763 86.4378 89.7142 84.6063 89.7142C82.8766 89.7142 82.5113 91.9763 82.5113 94.6005C82.5113 97.2246 82.8576 99.4893 84.6063 99.4893C86.4171 99.4893 86.7827 97.2258 86.7827 94.6005Z" fill="var(--fill-0, #939598)"/>
<path id="Vector_48" d="M89.5645 88.537H91.3546L93.1049 98.4474H93.1449L94.9972 88.537H97.011L98.8218 98.4474H98.8618L100.551 88.537H102.342L99.757 100.665H97.8854L95.9738 90.755H95.9324L94.1023 100.665H92.1078L89.5645 88.537Z" fill="var(--fill-0, #939598)"/>
<path id="Vector_49" d="M110.841 100.665H109.213V99.1716H109.172C108.948 100.077 107.992 100.982 106.813 100.982C104.229 100.982 103.252 98.4254 103.252 94.6005C103.252 92.0662 103.619 88.2205 106.69 88.2205C107.667 88.2205 108.704 88.8768 109.091 89.9173H109.131V84.5087H110.84V100.665L110.841 100.665ZM107.037 99.3525C108.929 99.3525 109.234 97.3614 109.234 94.6005C109.234 92.2485 108.867 89.8496 107.037 89.8496C105.449 89.8496 105.042 91.704 105.042 94.6005C105.042 97.497 105.449 99.3525 107.037 99.3525Z" fill="var(--fill-0, #939598)"/>
<path id="Vector_50" d="M114.501 94.8271C114.501 96.6829 114.501 99.4895 116.596 99.4895C118.224 99.4895 118.447 97.5882 118.447 96.6831H120.156C120.156 97.9724 119.465 100.982 116.494 100.982C113.83 100.982 112.711 98.9233 112.711 94.7597C112.711 91.728 113.239 88.2207 116.596 88.2207C119.933 88.2207 120.238 91.4556 120.238 94.059V94.8273H114.501V94.8271ZM118.447 93.3348V92.6784C118.447 91.32 118.061 89.7145 116.557 89.7145C114.766 89.7145 114.562 92.1575 114.562 92.8817V93.335H118.447V93.3348Z" fill="var(--fill-0, #939598)"/>
<path id="Vector_51" d="M122.106 88.5369H123.815V90.3472H123.856C124.344 89.1933 124.995 88.2205 126.216 88.2205C126.562 88.2205 126.805 88.266 126.967 88.3558V90.2116C126.805 90.188 126.602 90.1203 126.053 90.1203C125.198 90.1203 123.814 90.9799 123.814 92.9947V100.665H122.105V88.5367L122.106 88.5369Z" fill="var(--fill-0, #939598)"/>
<path id="Vector_52" d="M133.516 90.0307H131.93V88.537H133.516V87.1109C133.516 85.2785 134.227 84.3278 135.875 84.3278H137.117V85.9569H136.324C135.59 85.9569 135.224 86.2734 135.224 87.1109V88.537H137.096V90.0307H135.224V100.665H133.515L133.516 90.0307Z" fill="var(--fill-0, #939598)"/>
<path id="Vector_53" d="M141.673 88.2205C144.826 88.2205 145.598 91.1844 145.598 94.6005C145.598 98.0165 144.805 100.982 141.673 100.982C138.519 100.982 137.746 98.0179 137.746 94.6005C137.746 91.183 138.539 88.2205 141.673 88.2205ZM143.808 94.6005C143.808 91.9763 143.463 89.7142 141.631 89.7142C139.902 89.7142 139.536 91.9763 139.536 94.6005C139.536 97.2246 139.883 99.4893 141.631 99.4893C143.442 99.4893 143.808 97.2258 143.808 94.6005Z" fill="var(--fill-0, #939598)"/>
<path id="Vector_54" d="M147.303 88.5369H149.012V90.3472H149.053C149.542 89.1933 150.193 88.2205 151.413 88.2205C151.758 88.2205 152.003 88.266 152.166 88.3558V90.2116C152.003 90.188 151.799 90.1203 151.25 90.1203C150.395 90.1203 149.012 90.9799 149.012 92.9947V100.665H147.303V88.5367L147.303 88.5369Z" fill="var(--fill-0, #939598)"/>
<path id="Vector_55" d="M161.603 88.2205C164.756 88.2205 165.528 91.1844 165.528 94.6005C165.528 98.0165 164.735 100.982 161.603 100.982C158.448 100.982 157.676 98.0179 157.676 94.6005C157.676 91.183 158.469 88.2205 161.603 88.2205ZM163.738 94.6005C163.738 91.9763 163.393 89.7142 161.561 89.7142C159.831 89.7142 159.466 91.9763 159.466 94.6005C159.466 97.2246 159.812 99.4893 161.561 99.4893C163.372 99.4893 163.738 97.2258 163.738 94.6005Z" fill="var(--fill-0, #939598)"/>
<path id="Vector_56" d="M167.233 88.5369H168.942V90.3472H168.983C169.471 89.1933 170.122 88.2205 171.343 88.2205C171.689 88.2205 171.932 88.266 172.094 88.3558V90.2116C171.932 90.188 171.729 90.1203 171.18 90.1203C170.325 90.1203 168.941 90.9799 168.941 92.9947V100.665H167.232V88.5367L167.233 88.5369Z" fill="var(--fill-0, #939598)"/>
<path id="Vector_57" d="M172.989 92.203C172.989 89.4421 174.045 88.2205 176.65 88.2205C179.967 88.2205 179.967 90.4383 179.967 91.704V98.4707C179.967 98.9681 179.967 99.4435 180.495 99.4435C180.718 99.4435 180.82 99.398 180.902 99.3303V100.687C180.78 100.711 180.332 100.801 179.905 100.801C179.254 100.801 178.44 100.801 178.36 99.2391H178.319C177.77 100.325 176.712 100.982 175.694 100.982C173.66 100.982 172.725 99.6247 172.725 97.4524C172.725 95.7556 173.376 94.5781 174.78 94.1029L177.077 93.3345C178.319 92.9034 178.319 92.5192 178.319 91.5009C178.319 90.3692 177.709 89.7142 176.57 89.7142C174.697 89.7142 174.697 91.6599 174.697 92.0896V92.2028H172.989L172.989 92.203ZM178.258 94.0588C177.626 94.8049 176.121 94.9625 175.348 95.4834C174.799 95.869 174.515 96.343 174.515 97.4069C174.515 98.6285 174.901 99.4893 176.061 99.4893C177.179 99.4893 178.258 98.4252 178.258 97.1802V94.0588Z" fill="var(--fill-0, #939598)"/>
<path id="Vector_58" d="M182.385 84.5089H184.094V100.665H182.385V84.5089Z" fill="var(--fill-0, #939598)"/>
<path id="Vector_59" d="M195.993 92.0896C195.993 90.5503 195.626 89.7142 194.384 89.7142C193.835 89.7142 192.615 89.8718 192.615 91.5686C192.615 92.9947 193.958 93.2654 195.3 93.7644C196.623 94.2618 197.965 94.7828 197.965 97.1803C197.965 99.7381 196.48 100.982 194.446 100.982C190.743 100.982 190.703 97.9278 190.703 96.6826H192.412C192.412 98.1528 192.778 99.4891 194.447 99.4891C194.995 99.4891 196.257 99.1947 196.257 97.4743C196.257 95.8452 194.914 95.5065 193.591 95.0078C192.269 94.5104 190.906 94.0805 190.906 91.5684C190.906 89.3063 192.493 88.2202 194.384 88.2202C197.559 88.2202 197.681 90.6632 197.701 92.0893H195.993V92.0896Z" fill="var(--fill-0, #939598)"/>
<path id="Vector_60" d="M206.77 100.665H205.142V99.2393H205.102C204.654 100.349 203.515 100.982 202.457 100.982C199.588 100.982 199.588 98.5608 199.588 97.135V88.5372H201.297V96.9097C201.297 97.837 201.359 99.3527 202.904 99.3527C203.819 99.3527 205.061 98.6742 205.061 96.9097V88.5372H206.77V100.666V100.665Z" fill="var(--fill-0, #939598)"/>
<path id="Vector_61" d="M213.684 92.0896C213.684 90.5503 213.317 89.7142 212.076 89.7142C211.527 89.7142 210.306 89.8718 210.306 91.5686C210.306 92.9947 211.649 93.2654 212.991 93.7644C214.314 94.2618 215.656 94.7828 215.656 97.1803C215.656 99.7381 214.172 100.982 212.138 100.982C208.435 100.982 208.395 97.9278 208.395 96.6826H210.103C210.103 98.1528 210.469 99.4891 212.138 99.4891C212.687 99.4891 213.949 99.1947 213.949 97.4743C213.949 95.8452 212.605 95.5065 211.283 95.0078C209.96 94.5104 208.597 94.0805 208.597 91.5684C208.597 89.3063 210.185 88.2202 212.076 88.2202C215.251 88.2202 215.372 90.6632 215.393 92.0893H213.684V92.0896Z" fill="var(--fill-0, #939598)"/>
<path id="Vector_62" d="M217.283 88.5369H218.911V90.0307H218.952C219.176 89.1256 220.132 88.2205 221.312 88.2205C223.895 88.2205 224.872 90.7769 224.872 94.3752C224.872 97.1347 224.14 100.982 221.312 100.982C220.336 100.982 219.42 100.326 219.034 99.285H218.992V104.648H217.283V88.5372L217.283 88.5369ZM221.089 99.3525C222.675 99.3525 223.082 97.4967 223.082 94.3752C223.082 91.7042 222.675 89.8498 221.089 89.8498C219.196 89.8498 218.89 91.841 218.89 94.6007C218.89 96.9553 219.257 99.3527 221.089 99.3527V99.3525Z" fill="var(--fill-0, #939598)"/>
<path id="Vector_63" d="M228.124 94.8271C228.124 96.6829 228.124 99.4895 230.219 99.4895C231.847 99.4895 232.07 97.5882 232.07 96.6831H233.779C233.779 97.9724 233.088 100.982 230.117 100.982C227.453 100.982 226.334 98.9233 226.334 94.7597C226.334 91.728 226.862 88.2207 230.219 88.2207C233.556 88.2207 233.861 91.4556 233.861 94.059V94.8273H228.124V94.8271ZM232.07 93.3347V92.6784C232.07 91.32 231.684 89.7145 230.178 89.7145C228.388 89.7145 228.185 92.1575 228.185 92.8817V93.335H232.07V93.3347Z" fill="var(--fill-0, #939598)"/>
<path id="Vector_64" d="M235.729 88.537H237.356V89.963H237.398C237.844 88.8535 238.984 88.2205 240.041 88.2205C242.91 88.2205 242.91 90.6415 242.91 92.0662V100.665H241.201V92.2928C241.201 91.3655 241.141 89.8499 239.595 89.8499C238.679 89.8499 237.438 90.5283 237.438 92.2928V100.665H235.729V88.537Z" fill="var(--fill-0, #939598)"/>
<path id="Vector_65" d="M249.824 92.0895C249.824 90.5503 249.457 89.7142 248.218 89.7142C247.667 89.7142 246.447 89.8718 246.447 91.5686C246.447 92.9947 247.79 93.2654 249.132 93.7644C250.455 94.2618 251.798 94.7828 251.798 97.1802C251.798 99.7381 250.313 100.982 248.278 100.982C244.575 100.982 244.535 97.9278 244.535 96.6826H246.244C246.244 98.1528 246.61 99.4891 248.279 99.4891C248.828 99.4891 250.088 99.1947 250.088 97.4743C250.088 95.8452 248.746 95.5065 247.424 95.0077C246.102 94.5104 244.738 94.0805 244.738 91.5684C244.738 89.3062 246.326 88.2202 248.218 88.2202C251.39 88.2202 251.513 90.6632 251.534 92.0893H249.825L249.824 92.0895Z" fill="var(--fill-0, #939598)"/>
<path id="Vector_66" d="M253.524 84.5089H255.232V86.6812H253.524V84.5089ZM253.524 88.537H255.232V100.665H253.524V88.537Z" fill="var(--fill-0, #939598)"/>
<path id="Vector_67" d="M260.966 88.2205C264.121 88.2205 264.893 91.1844 264.893 94.6005C264.893 98.0165 264.1 100.982 260.966 100.982C257.813 100.982 257.041 98.0179 257.041 94.6005C257.041 91.183 257.834 88.2205 260.966 88.2205ZM263.103 94.6005C263.103 91.9763 262.756 89.7142 260.926 89.7142C259.197 89.7142 258.831 91.9763 258.831 94.6005C258.831 97.2246 259.176 99.4893 260.926 99.4893C262.737 99.4893 263.103 97.2258 263.103 94.6005Z" fill="var(--fill-0, #939598)"/>
<path id="Vector_68" d="M266.6 88.5369H268.227V89.963H268.269C268.715 88.8534 269.855 88.2205 270.912 88.2205C273.781 88.2205 273.781 90.6415 273.781 92.0662V100.665H272.072V92.2928C272.072 91.3655 272.012 89.8498 270.466 89.8498C269.55 89.8498 268.309 90.5283 268.309 92.2928V100.665H266.6V88.5369Z" fill="var(--fill-0, #939598)"/>
</g>
<g id="Group_2">
<path id="Vector_69" d="M65.3458 33.3312V18.7612L53.752 18.7695V33.3312H65.3458Z" fill="var(--fill-0, #034040)"/>
<path id="Vector_70" d="M60.4844 27.3838V31.1342H61.6058V28.8832C61.6058 28.8832 61.6058 28.1314 62.3489 28.1314H63.4703V27.3838H61.7891C61.7891 27.3838 61.1326 27.479 61.236 27.6215C61.3202 27.7528 61.0691 27.3838 61.0691 27.3838H60.5093" fill="var(--fill-0, white)"/>
<path id="Vector_71" d="M55.6211 21.2858H61.2843C62.6785 21.2858 63.1905 22.0403 63.1905 23.635C63.1959 25.2766 61.9686 25.9261 61.2278 25.9261H57.0694V31.1368H55.6213V21.3868M57.1229 24.6698H60.8526C60.8526 24.6698 61.6056 24.7665 61.6056 23.6347C61.5034 22.5584 61.1325 22.5098 60.8552 22.5098H57.1229V24.7125" fill="var(--fill-0, white)"/>
</g>
<path id="Vector_72" d="M276.559 42.787H261.479L269.066 24.0493C269.066 24.0493 276.608 42.787 276.559 42.787ZM260.336 45.6667H277.748L280.077 51.5314H283.402L269.169 16.9453H267.912L253.727 51.5314H257.958L260.336 45.6667ZM277.236 19.5694C277.476 19.0237 277.801 18.5511 278.214 18.1502C278.626 17.7495 279.106 17.4344 279.655 17.205C280.203 16.9769 280.785 16.8623 281.401 16.8623C282.017 16.8623 282.598 16.9769 283.142 17.205C283.687 17.4344 284.163 17.7495 284.571 18.1502C284.979 18.5509 285.303 19.0235 285.543 19.5694C285.783 20.114 285.903 20.704 285.903 21.3368C285.903 21.9863 285.783 22.586 285.543 23.1359C285.303 23.6845 284.979 24.1613 284.571 24.566C284.163 24.971 283.687 25.286 283.142 25.5113C282.598 25.7351 282.018 25.8471 281.401 25.8471C280.784 25.8471 280.202 25.7351 279.655 25.5113C279.106 25.286 278.626 24.971 278.214 24.566C277.801 24.1611 277.476 23.6845 277.236 23.1359C276.996 22.586 276.876 21.9863 276.876 21.3368C276.876 20.7038 276.996 20.1137 277.236 19.5694ZM277.974 22.8706C278.163 23.339 278.422 23.7468 278.754 24.0908C279.087 24.4363 279.479 24.7071 279.931 24.9033C280.383 25.0995 280.873 25.1976 281.401 25.1976C281.921 25.1976 282.405 25.0995 282.853 24.9033C283.302 24.7071 283.692 24.4363 284.024 24.0908C284.357 23.7468 284.616 23.339 284.805 22.8706C284.993 22.4023 285.086 21.891 285.086 21.3368C285.086 20.8007 284.993 20.2991 284.805 19.8333C284.616 19.369 284.357 18.9655 284.024 18.6256C283.692 18.2844 283.302 18.0162 282.853 17.8186C282.405 17.6224 281.921 17.5243 281.401 17.5243C280.873 17.5243 280.383 17.6224 279.931 17.8186C279.479 18.0162 279.087 18.2844 278.754 18.6256C278.422 18.9655 278.163 19.369 277.974 19.8333C277.786 20.2991 277.692 20.8007 277.692 21.3368C277.692 21.891 277.786 22.4023 277.974 22.8706ZM281.677 18.7266C282.302 18.7266 282.764 18.8523 283.064 19.0997C283.364 19.3485 283.514 19.7256 283.514 20.23C283.514 20.704 283.381 21.0507 283.118 21.2705C282.853 21.4917 282.525 21.6214 282.133 21.6615L283.634 23.9831H282.758L281.329 21.7224H280.465V23.9831H279.649V18.7266H281.677ZM281.317 21.0606C281.502 21.0606 281.676 21.0552 281.84 21.0427C282.004 21.0302 282.15 20.9972 282.279 20.9403C282.405 20.8852 282.507 20.7981 282.585 20.6819C282.661 20.5658 282.698 20.4026 282.698 20.1942C282.698 20.0187 282.665 19.8777 282.596 19.7741C282.528 19.6692 282.44 19.589 282.332 19.5336C282.225 19.477 282.099 19.4397 281.96 19.419C281.819 19.3996 281.681 19.3886 281.546 19.3886H280.465V21.0606H281.317Z" fill="var(--fill-0, #004957)"/>
</g>
<defs>
<clipPath id="clip0_1609_6767">
<rect width="299" height="105" fill="white"/>
</clipPath>
</defs>
</svg>
